<?xml version="1.0" encoding="UTF-8"?>
<svg xmlns="http://www.w3.org/2000/svg" xmlns:xlink="http://www.w3.org/1999/xlink"  viewBox="0 0 120 65" version="1.1">
<g id="surface1">
<path style=" stroke:none;fill-rule:nonzero;fill:rgb(100%,100%,100%);fill-opacity:1;" d="M 0 54.660156 C 0 60.363281 4.839844 65 10.789062 65 L 109.214844 65 C 115.160156 65 120 60.359375 120 54.660156 L 120 10.339844 C 120 4.636719 115.160156 0 109.214844 0 L 10.789062 0 C 4.839844 0 0 4.640625 0 10.339844 Z M 0 54.660156 "/>
<path style=" stroke:none;fill-rule:evenodd;fill:rgb(11.764706%,56.078431%,30.588235%);fill-opacity:1;" d="M 1.175781 54.660156 C 1.175781 59.667969 5.441406 63.824219 10.789062 63.824219 L 109.214844 63.824219 C 114.5625 63.824219 118.828125 59.664062 118.828125 54.660156 L 118.828125 10.339844 C 118.828125 5.332031 114.5625 1.175781 109.214844 1.175781 L 10.789062 1.175781 C 5.441406 1.175781 1.175781 5.335938 1.175781 10.339844 Z M 10.789062 65 C 4.84375 65 0 60.363281 0 54.660156 L 0 10.339844 C 0 4.640625 4.839844 0 10.789062 0 L 109.214844 0 C 115.160156 0 120 4.636719 120 10.339844 L 120 54.660156 C 120 60.363281 115.160156 65 109.214844 65 Z M 10.789062 65 "/>
<path style=" stroke:none;fill-rule:nonzero;fill:rgb(11.372549%,11.372549%,10.588235%);fill-opacity:1;" d="M 74.476562 19.691406 L 61.40625 19.691406 C 61.820312 22.714844 64.410156 24.246094 66.964844 24.246094 C 70.722656 24.246094 72.597656 22.425781 72.597656 22.425781 L 72.597656 26.070312 C 72.597656 26.070312 70.722656 27.894531 66.964844 27.894531 C 61.332031 27.894531 57.574219 24.246094 57.574219 18.777344 C 57.574219 13.304688 61.332031 9.660156 66.027344 9.660156 C 70.722656 9.660156 74.476562 13.304688 74.476562 18.777344 Z M 61.519531 16.953125 L 70.535156 16.953125 C 70.007812 14.511719 68.316406 13.308594 66.027344 13.308594 C 63.734375 13.308594 62.046875 14.511719 61.519531 16.953125 Z M 89.554688 10.574219 L 89.554688 14.21875 C 89.554688 14.21875 86.816406 13.304688 84.996094 13.304688 C 82.257812 13.304688 79.527344 15.128906 79.527344 18.777344 C 79.527344 22.421875 82.261719 24.246094 84.996094 24.246094 C 86.820312 24.246094 89.550781 23.335938 89.550781 23.335938 L 89.550781 26.980469 C 89.550781 26.980469 87.730469 27.894531 84.996094 27.894531 C 79.527344 27.894531 75.878906 24.246094 75.878906 18.777344 C 75.878906 13.304688 79.523438 9.660156 84.996094 9.660156 C 87.730469 9.660156 89.550781 10.574219 89.550781 10.574219 Z M 109.171875 18.777344 C 109.171875 24.246094 105.523438 27.894531 100.054688 27.894531 C 94.585938 27.894531 90.9375 24.25 90.9375 18.777344 C 90.9375 13.308594 94.585938 9.660156 100.054688 9.660156 C 105.523438 9.660156 109.171875 13.308594 109.171875 18.777344 Z M 94.585938 18.777344 C 94.585938 22.425781 97.320312 24.246094 100.054688 24.246094 C 102.789062 24.246094 105.523438 22.425781 105.523438 18.777344 C 105.523438 15.128906 102.789062 13.308594 100.054688 13.308594 C 97.320312 13.308594 94.585938 15.128906 94.585938 18.777344 Z M 61.585938 54.769531 C 59.730469 54.769531 57.875 54.152344 57.875 54.152344 L 57.875 51.675781 C 57.875 51.675781 59.730469 52.296875 61.585938 52.296875 C 62.824219 52.296875 63.441406 51.675781 63.441406 51.058594 C 63.441406 49.203125 57.585938 50.441406 57.585938 46.109375 C 57.585938 43.636719 59.113281 42.394531 61.585938 42.394531 C 63.445312 42.394531 65.300781 43.015625 65.300781 43.015625 L 65.300781 45.488281 C 65.300781 45.488281 63.445312 44.871094 61.585938 44.871094 C 60.351562 44.871094 59.730469 45.488281 59.730469 46.109375 C 59.730469 47.964844 65.917969 46.726562 65.917969 51.058594 C 65.917969 53.535156 64.058594 54.773438 61.585938 54.773438 Z M 75.941406 43.015625 L 75.941406 45.488281 C 75.941406 45.488281 74.085938 44.871094 72.847656 44.871094 C 70.992188 44.871094 69.132812 46.109375 69.132812 48.585938 C 69.132812 51.058594 70.992188 52.296875 72.847656 52.296875 C 74.085938 52.296875 75.941406 51.675781 75.941406 51.675781 L 75.941406 54.152344 C 75.941406 54.152344 74.703125 54.773438 72.847656 54.773438 C 69.132812 54.773438 66.660156 52.296875 66.660156 48.585938 C 66.660156 44.871094 69.132812 42.394531 72.847656 42.394531 C 74.703125 42.394531 75.941406 43.015625 75.941406 43.015625 Z M 89.332031 48.585938 C 89.332031 52.296875 86.855469 54.773438 83.144531 54.773438 C 79.429688 54.773438 76.957031 52.296875 76.957031 48.585938 C 76.957031 44.871094 79.429688 42.394531 83.144531 42.394531 C 86.855469 42.394531 89.332031 44.871094 89.332031 48.585938 Z M 79.429688 48.585938 C 79.429688 51.058594 81.285156 52.296875 83.144531 52.296875 C 85 52.296875 86.855469 51.058594 86.855469 48.585938 C 86.855469 46.109375 85 44.871094 83.144531 44.871094 C 81.285156 44.871094 79.429688 46.109375 79.429688 48.585938 Z M 97.820312 42.394531 L 97.820312 44.871094 C 95.34375 44.871094 92.867188 45.488281 92.867188 48.585938 L 92.867188 54.773438 L 90.394531 54.773438 L 90.394531 42.398438 L 92.867188 42.398438 L 92.867188 47.347656 C 92.871094 44.253906 94.726562 42.398438 97.820312 42.398438 Z M 109.082031 49.203125 L 100.46875 49.203125 C 100.738281 51.257812 102.449219 52.296875 104.132812 52.296875 C 106.605469 52.296875 107.84375 51.058594 107.84375 51.058594 L 107.84375 53.535156 C 107.84375 53.535156 106.605469 54.773438 104.132812 54.773438 C 100.417969 54.773438 97.941406 52.296875 97.941406 48.585938 C 97.941406 44.871094 100.417969 42.394531 103.511719 42.394531 C 106.605469 42.394531 109.078125 44.871094 109.078125 48.585938 L 109.078125 49.203125 Z M 100.542969 47.347656 L 106.480469 47.347656 C 106.136719 45.6875 105.023438 44.871094 103.511719 44.871094 C 102 44.871094 100.890625 45.6875 100.542969 47.347656 Z M 100.542969 47.347656 "/>
<path style=" stroke:none;fill-rule:nonzero;fill:rgb(85.098039%,21.568627%,14.901961%);fill-opacity:1;" d="M 110.710938 35.015625 C 110.710938 32.863281 108.964844 31.121094 106.8125 31.121094 L 95.585938 31.121094 C 93.457031 31.15625 91.75 32.886719 91.75 35.015625 C 91.75 37.144531 93.457031 38.878906 95.585938 38.910156 L 106.8125 38.910156 C 108.964844 38.910156 110.707031 37.167969 110.707031 35.015625 Z M 110.710938 35.015625 "/>
<path style=" stroke:none;fill-rule:nonzero;fill:rgb(100%,100%,100%);fill-opacity:1;" d="M 111.199219 35.015625 C 111.195312 37.4375 109.234375 39.398438 106.816406 39.402344 L 95.585938 39.402344 C 93.167969 39.398438 91.207031 37.4375 91.203125 35.015625 C 91.203125 32.59375 93.167969 30.632812 95.585938 30.628906 L 106.816406 30.628906 C 109.234375 30.632812 111.199219 32.59375 111.199219 35.015625 Z M 106.816406 38.421875 C 108.695312 38.417969 110.214844 36.894531 110.21875 35.015625 C 110.21875 33.136719 108.695312 31.613281 106.816406 31.613281 L 95.585938 31.613281 C 93.707031 31.613281 92.183594 33.136719 92.183594 35.015625 C 92.183594 36.894531 93.707031 38.417969 95.585938 38.421875 Z M 106.816406 38.421875 "/>
<path style=" stroke:none;fill-rule:nonzero;fill:rgb(93.72549%,49.411765%,10.196078%);fill-opacity:1;" d="M 100.410156 35.015625 C 100.410156 32.863281 98.664062 31.121094 96.515625 31.121094 L 85.738281 31.121094 C 83.609375 31.15625 81.902344 32.886719 81.902344 35.015625 C 81.902344 37.144531 83.609375 38.878906 85.738281 38.910156 L 96.515625 38.910156 C 98.664062 38.910156 100.410156 37.167969 100.410156 35.015625 Z M 100.410156 35.015625 "/>
<path style=" stroke:none;fill-rule:nonzero;fill:rgb(100%,100%,100%);fill-opacity:1;" d="M 100.898438 35.015625 C 100.894531 37.4375 98.933594 39.398438 96.515625 39.402344 L 85.757812 39.402344 C 83.335938 39.398438 81.375 37.4375 81.371094 35.015625 C 81.375 32.59375 83.335938 30.632812 85.757812 30.628906 L 96.515625 30.628906 C 98.933594 30.632812 100.898438 32.59375 100.898438 35.015625 Z M 96.515625 38.421875 C 98.394531 38.417969 99.914062 36.894531 99.917969 35.015625 C 99.917969 33.136719 98.394531 31.613281 96.515625 31.613281 L 85.757812 31.613281 C 83.878906 31.613281 82.355469 33.136719 82.351562 35.015625 C 82.355469 36.894531 83.878906 38.417969 85.757812 38.421875 Z M 96.515625 38.421875 "/>
<path style=" stroke:none;fill-rule:nonzero;fill:rgb(96.078431%,75.686275%,0%);fill-opacity:1;" d="M 90.710938 35.015625 C 90.710938 32.863281 88.96875 31.121094 86.816406 31.121094 L 75.929688 31.121094 C 73.777344 31.121094 72.035156 32.863281 72.035156 35.015625 C 72.035156 37.167969 73.777344 38.910156 75.929688 38.910156 L 86.816406 38.910156 C 88.96875 38.910156 90.710938 37.167969 90.710938 35.015625 Z M 90.710938 35.015625 "/>
<path style=" stroke:none;fill-rule:nonzero;fill:rgb(100%,100%,100%);fill-opacity:1;" d="M 91.203125 35.015625 C 91.199219 37.4375 89.238281 39.398438 86.816406 39.402344 L 75.929688 39.402344 C 73.507812 39.398438 71.546875 37.4375 71.542969 35.015625 C 71.546875 32.59375 73.507812 30.632812 75.929688 30.628906 L 86.816406 30.628906 C 89.238281 30.632812 91.199219 32.59375 91.203125 35.015625 Z M 86.816406 38.421875 C 88.695312 38.417969 90.21875 36.894531 90.21875 35.015625 C 90.21875 33.136719 88.695312 31.613281 86.816406 31.613281 L 75.929688 31.613281 C 74.050781 31.613281 72.527344 33.136719 72.523438 35.015625 C 72.527344 36.894531 74.050781 38.417969 75.929688 38.421875 Z M 86.816406 38.421875 "/>
<path style=" stroke:none;fill-rule:nonzero;fill:rgb(18.039216%,80%,44.313725%);fill-opacity:1;" d="M 80.882812 35.015625 C 80.882812 32.863281 79.136719 31.121094 76.988281 31.121094 L 66.101562 31.121094 C 63.972656 31.15625 62.265625 32.886719 62.265625 35.015625 C 62.265625 37.144531 63.972656 38.878906 66.101562 38.910156 L 76.988281 38.910156 C 79.136719 38.910156 80.882812 37.167969 80.882812 35.015625 Z M 80.882812 35.015625 "/>
<path style=" stroke:none;fill-rule:nonzero;fill:rgb(100%,100%,100%);fill-opacity:1;" d="M 81.371094 35.015625 C 81.367188 37.4375 79.40625 39.398438 76.988281 39.402344 L 66.101562 39.402344 C 63.679688 39.398438 61.71875 37.4375 61.714844 35.015625 C 61.71875 32.59375 63.679688 30.632812 66.101562 30.628906 L 76.988281 30.628906 C 79.410156 30.632812 81.371094 32.59375 81.371094 35.015625 Z M 76.988281 38.421875 C 78.867188 38.417969 80.386719 36.894531 80.390625 35.015625 C 80.390625 33.136719 78.867188 31.613281 76.988281 31.613281 L 66.101562 31.613281 C 64.222656 31.613281 62.699219 33.136719 62.695312 35.015625 C 62.699219 36.894531 64.222656 38.417969 66.101562 38.421875 Z M 76.988281 38.421875 "/>
<path style=" stroke:none;fill-rule:nonzero;fill:rgb(11.764706%,56.078431%,30.588235%);fill-opacity:1;" d="M 71.066406 35.015625 C 71.066406 32.863281 69.324219 31.121094 67.171875 31.121094 L 59.808594 31.121094 C 57.683594 31.15625 55.976562 32.886719 55.976562 35.015625 C 55.976562 37.144531 57.683594 38.878906 59.808594 38.910156 L 67.171875 38.910156 C 69.324219 38.910156 71.066406 37.167969 71.066406 35.015625 Z M 71.066406 35.015625 "/>
<path style=" stroke:none;fill-rule:nonzero;fill:rgb(100%,100%,100%);fill-opacity:1;" d="M 71.558594 35.015625 C 71.554688 37.4375 69.59375 39.398438 67.171875 39.402344 L 59.808594 39.402344 C 57.390625 39.398438 55.425781 37.4375 55.425781 35.015625 C 55.425781 32.59375 57.390625 30.632812 59.808594 30.628906 L 67.171875 30.628906 C 69.59375 30.632812 71.554688 32.59375 71.558594 35.015625 Z M 67.171875 38.421875 C 69.050781 38.417969 70.574219 36.894531 70.578125 35.015625 C 70.574219 33.136719 69.050781 31.613281 67.171875 31.613281 L 59.808594 31.613281 C 57.929688 31.613281 56.40625 33.136719 56.40625 35.015625 C 56.410156 36.894531 57.929688 38.417969 59.808594 38.421875 Z M 67.171875 38.421875 "/>
<path style=" stroke:none;fill-rule:nonzero;fill:rgb(11.764706%,56.078431%,30.588235%);fill-opacity:1;" d="M 50.285156 9.03125 C 51.078125 8.964844 51.816406 9.703125 51.75 10.496094 C 51.652344 11.628906 50.242188 37.371094 42.003906 45.609375 C 34.109375 53.503906 24.804688 51.652344 18.730469 47.285156 C 18.648438 47.222656 18.5625 47.160156 18.484375 47.09375 L 13.007812 52.5625 C 11.679688 53.867188 9.550781 53.859375 8.234375 52.542969 C 6.917969 51.230469 6.910156 49.097656 8.214844 47.773438 L 13.6875 42.296875 C 13.621094 42.214844 13.558594 42.132812 13.496094 42.050781 C 9.128906 35.976562 7.277344 26.671875 15.171875 18.777344 C 23.410156 10.539062 49.152344 9.128906 50.285156 9.03125 Z M 50.285156 9.03125 "/>
<path style=" stroke:none;fill-rule:nonzero;fill:rgb(100%,100%,100%);fill-opacity:1;" d="M 36.132812 40.558594 C 37.320312 40.558594 38.167969 39.765625 38.167969 38.644531 C 38.167969 38.238281 38.101562 37.875 37.910156 37.347656 L 32.570312 22.863281 C 31.992188 21.273438 31.046875 20.574219 29.457031 20.574219 C 27.917969 20.574219 26.960938 21.300781 26.394531 22.878906 L 21.082031 37.347656 C 20.90625 37.847656 20.8125 38.308594 20.8125 38.644531 C 20.8125 39.816406 21.605469 40.558594 22.875 40.558594 C 23.953125 40.558594 24.558594 40.019531 24.9375 38.726562 L 25.964844 35.691406 L 32.988281 35.691406 L 34.015625 38.765625 C 34.378906 40.035156 34.984375 40.558594 36.132812 40.558594 Z M 32.046875 32.535156 L 26.851562 32.535156 L 29.375 24.566406 L 29.46875 24.566406 Z M 32.046875 32.535156 "/>
</g>
</svg>
