<?xml version="1.0" encoding="UTF-8"?>
<svg xmlns="http://www.w3.org/2000/svg" xmlns:xlink="http://www.w3.org/1999/xlink" width="px" height="px" viewBox="0 0 34 65" version="1.1">
<g id="surface1">
<path style=" stroke:none;fill-rule:nonzero;fill:rgb(100%,40%,0%);fill-opacity:1;" d="M 0 18 L 34 18 L 34 63.003906 L 0 63.003906 Z M 0 18 "/>
<path style=" stroke:none;fill-rule:nonzero;fill:rgb(49.019608%,49.019608%,49.019608%);fill-opacity:1;" d="M 2.433594 9.777344 L 2.433594 14.75 L 0.425781 14.75 L 0.425781 6.054688 L 1.992188 6.054688 L 6.046875 11.160156 L 6.046875 6.054688 L 8.054688 6.054688 L 8.054688 14.75 L 6.4375 14.75 Z M 13.535156 14.824219 C 12.890625 14.824219 12.304688 14.695312 11.773438 14.441406 C 11.242188 14.191406 10.789062 13.859375 10.414062 13.449219 C 10.039062 13.035156 9.746094 12.5625 9.53125 12.03125 C 9.328125 11.5 9.226562 10.953125 9.226562 10.390625 C 9.226562 9.816406 9.332031 9.265625 9.542969 8.738281 C 9.765625 8.207031 10.066406 7.742188 10.449219 7.339844 C 10.84375 6.933594 11.304688 6.609375 11.832031 6.375 C 12.363281 6.128906 12.945312 6.007812 13.574219 6.007812 C 14.21875 6.007812 14.804688 6.132812 15.335938 6.386719 C 15.867188 6.636719 16.320312 6.972656 16.695312 7.390625 C 17.070312 7.804688 17.359375 8.28125 17.566406 8.808594 C 17.769531 9.339844 17.871094 9.878906 17.871094 10.425781 C 17.871094 10.996094 17.761719 11.546875 17.539062 12.078125 C 17.328125 12.609375 17.03125 13.078125 16.644531 13.488281 C 16.261719 13.886719 15.804688 14.210938 15.273438 14.453125 C 14.746094 14.699219 14.164062 14.824219 13.535156 14.824219 Z M 11.269531 10.414062 C 11.269531 10.75 11.320312 11.074219 11.417969 11.394531 C 11.515625 11.703125 11.660156 11.980469 11.847656 12.226562 C 12.042969 12.472656 12.28125 12.667969 12.570312 12.8125 C 12.855469 12.960938 13.179688 13.035156 13.546875 13.035156 C 13.933594 13.035156 14.265625 12.957031 14.550781 12.800781 C 14.839844 12.648438 15.074219 12.445312 15.261719 12.203125 C 15.449219 11.949219 15.589844 11.667969 15.679688 11.355469 C 15.777344 11.039062 15.824219 10.714844 15.824219 10.390625 C 15.824219 10.054688 15.777344 9.734375 15.679688 9.421875 C 15.582031 9.105469 15.433594 8.828125 15.238281 8.589844 C 15.042969 8.34375 14.800781 8.152344 14.515625 8.015625 C 14.238281 7.867188 13.914062 7.792969 13.546875 7.792969 C 13.164062 7.792969 12.828125 7.871094 12.542969 8.027344 C 12.265625 8.171875 12.03125 8.371094 11.832031 8.613281 C 11.644531 8.859375 11.503906 9.140625 11.40625 9.457031 C 11.316406 9.769531 11.269531 10.085938 11.269531 10.414062 Z M 19.980469 6.054688 L 22.027344 12.226562 L 24.046875 6.054688 L 26.164062 6.054688 L 22.871094 14.75 L 21.179688 14.75 L 17.851562 6.054688 Z M 28.59375 6.054688 L 30.40625 6.054688 L 33.578125 14.75 L 31.519531 14.75 L 30.847656 12.800781 L 28.140625 12.800781 L 27.480469 14.75 L 25.421875 14.75 Z M 30.515625 11.417969 L 29.5 8.34375 L 28.457031 11.417969 Z M 30.515625 11.417969 "/>
<path style=" stroke:none;fill-rule:nonzero;fill:rgb(100%,100%,100%);fill-opacity:1;" d="M 26.328125 33.023438 C 26.328125 34.714844 25.816406 36.152344 24.792969 37.335938 C 23.769531 38.519531 22.332031 39.335938 20.480469 39.777344 L 20.480469 39.890625 C 22.664062 40.160156 24.316406 40.828125 25.441406 41.890625 C 26.5625 42.9375 27.125 44.359375 27.125 46.148438 C 27.125 48.75 26.179688 50.78125 24.292969 52.238281 C 22.40625 53.679688 19.707031 54.402344 16.203125 54.402344 C 13.265625 54.402344 10.664062 53.914062 8.390625 52.941406 L 8.390625 48.070312 C 9.441406 48.601562 10.59375 49.035156 11.855469 49.367188 C 13.113281 49.699219 14.359375 49.867188 15.59375 49.867188 C 17.480469 49.867188 18.875 49.546875 19.777344 48.90625 C 20.675781 48.261719 21.128906 47.234375 21.128906 45.8125 C 21.128906 44.542969 20.609375 43.640625 19.574219 43.109375 C 18.535156 42.582031 16.882812 42.316406 14.613281 42.316406 L 12.558594 42.316406 L 12.558594 37.929688 L 14.648438 37.929688 C 16.746094 37.929688 18.277344 37.65625 19.238281 37.113281 C 20.214844 36.558594 20.703125 35.613281 20.703125 34.28125 C 20.703125 32.234375 19.417969 31.210938 16.851562 31.210938 C 15.960938 31.210938 15.054688 31.355469 14.128906 31.652344 C 13.21875 31.949219 12.199219 32.460938 11.078125 33.191406 L 8.429688 29.246094 C 10.898438 27.46875 13.839844 26.582031 17.257812 26.582031 C 20.058594 26.582031 22.269531 27.148438 23.886719 28.285156 C 25.515625 29.417969 26.328125 31 26.328125 33.023438 Z M 26.328125 33.023438 "/>
</g>
</svg>
