<?xml version="1.0" encoding="UTF-8"?>
<svg xmlns="http://www.w3.org/2000/svg" xmlns:xlink="http://www.w3.org/1999/xlink" width="px" height="px" viewBox="0 0 34 65" version="1.1">
<g id="surface1">
<path style=" stroke:none;fill-rule:nonzero;fill:rgb(100%,80%,0%);fill-opacity:1;" d="M 0 18 L 34 18 L 34 63.003906 L 0 63.003906 Z M 0 18 "/>
<path style=" stroke:none;fill-rule:nonzero;fill:rgb(49.019608%,49.019608%,49.019608%);fill-opacity:1;" d="M 2.433594 9.777344 L 2.433594 14.75 L 0.425781 14.75 L 0.425781 6.054688 L 1.992188 6.054688 L 6.046875 11.160156 L 6.046875 6.054688 L 8.054688 6.054688 L 8.054688 14.75 L 6.4375 14.75 Z M 13.535156 14.824219 C 12.890625 14.824219 12.304688 14.695312 11.773438 14.441406 C 11.242188 14.191406 10.789062 13.859375 10.414062 13.449219 C 10.039062 13.035156 9.746094 12.5625 9.53125 12.03125 C 9.328125 11.5 9.226562 10.953125 9.226562 10.390625 C 9.226562 9.816406 9.332031 9.265625 9.542969 8.738281 C 9.765625 8.207031 10.066406 7.742188 10.449219 7.339844 C 10.84375 6.933594 11.304688 6.609375 11.832031 6.375 C 12.363281 6.128906 12.945312 6.007812 13.574219 6.007812 C 14.21875 6.007812 14.804688 6.132812 15.335938 6.386719 C 15.867188 6.636719 16.320312 6.972656 16.695312 7.390625 C 17.070312 7.804688 17.359375 8.28125 17.566406 8.808594 C 17.769531 9.339844 17.871094 9.878906 17.871094 10.425781 C 17.871094 10.996094 17.761719 11.546875 17.539062 12.078125 C 17.328125 12.609375 17.03125 13.078125 16.644531 13.488281 C 16.261719 13.886719 15.804688 14.210938 15.273438 14.453125 C 14.746094 14.699219 14.164062 14.824219 13.535156 14.824219 Z M 11.269531 10.414062 C 11.269531 10.75 11.320312 11.074219 11.417969 11.394531 C 11.515625 11.703125 11.660156 11.980469 11.847656 12.226562 C 12.042969 12.472656 12.28125 12.667969 12.570312 12.8125 C 12.855469 12.960938 13.179688 13.035156 13.546875 13.035156 C 13.933594 13.035156 14.265625 12.957031 14.550781 12.800781 C 14.839844 12.648438 15.074219 12.445312 15.261719 12.203125 C 15.449219 11.949219 15.589844 11.667969 15.679688 11.355469 C 15.777344 11.039062 15.824219 10.714844 15.824219 10.390625 C 15.824219 10.054688 15.777344 9.734375 15.679688 9.421875 C 15.582031 9.105469 15.433594 8.828125 15.238281 8.589844 C 15.042969 8.34375 14.800781 8.152344 14.515625 8.015625 C 14.238281 7.867188 13.914062 7.792969 13.546875 7.792969 C 13.164062 7.792969 12.828125 7.871094 12.542969 8.027344 C 12.265625 8.171875 12.03125 8.371094 11.832031 8.613281 C 11.644531 8.859375 11.503906 9.140625 11.40625 9.457031 C 11.316406 9.769531 11.269531 10.085938 11.269531 10.414062 Z M 19.980469 6.054688 L 22.027344 12.226562 L 24.046875 6.054688 L 26.164062 6.054688 L 22.871094 14.75 L 21.179688 14.75 L 17.851562 6.054688 Z M 28.59375 6.054688 L 30.40625 6.054688 L 33.578125 14.75 L 31.519531 14.75 L 30.847656 12.800781 L 28.140625 12.800781 L 27.480469 14.75 L 25.421875 14.75 Z M 30.515625 11.417969 L 29.5 8.34375 L 28.457031 11.417969 Z M 30.515625 11.417969 "/>
<path style=" stroke:none;fill-rule:nonzero;fill:rgb(100%,100%,100%);fill-opacity:1;" d="M 27.507812 54.03125 L 8.589844 54.03125 L 8.589844 50.050781 L 15.382812 43.183594 C 17.394531 41.125 18.707031 39.699219 19.324219 38.910156 C 19.941406 38.105469 20.386719 37.367188 20.65625 36.6875 C 20.929688 36.007812 21.066406 35.304688 21.066406 34.578125 C 21.066406 33.492188 20.761719 32.683594 20.15625 32.152344 C 19.566406 31.621094 18.769531 31.355469 17.769531 31.355469 C 16.722656 31.355469 15.703125 31.597656 14.714844 32.078125 C 13.730469 32.558594 12.699219 33.246094 11.625 34.132812 L 8.515625 30.449219 C 9.847656 29.316406 10.953125 28.511719 11.828125 28.042969 C 12.703125 27.574219 13.660156 27.21875 14.699219 26.96875 C 15.734375 26.710938 16.894531 26.582031 18.175781 26.582031 C 19.867188 26.582031 21.359375 26.890625 22.65625 27.507812 C 23.953125 28.125 24.957031 28.988281 25.675781 30.097656 C 26.390625 31.210938 26.746094 32.480469 26.746094 33.910156 C 26.746094 35.15625 26.527344 36.332031 26.082031 37.429688 C 25.648438 38.515625 24.972656 39.632812 24.046875 40.777344 C 23.132812 41.925781 21.515625 43.5625 19.195312 45.683594 L 15.714844 48.960938 L 15.714844 49.21875 L 27.507812 49.21875 Z M 27.507812 54.03125 "/>
</g>
</svg>
