<?xml version="1.0" encoding="UTF-8"?>
<svg xmlns="http://www.w3.org/2000/svg" xmlns:xlink="http://www.w3.org/1999/xlink"  viewBox="0 0 120 65" version="1.1">
<g id="surface1">
<path style=" stroke:none;fill-rule:nonzero;fill:rgb(100%,100%,100%);fill-opacity:1;" d="M 106.089844 0 L 13.914062 0 C 6.355469 0 0.207031 6.148438 0.207031 13.703125 L 0.207031 49.089844 C 0.207031 56.648438 6.355469 62.796875 13.914062 62.796875 L 73.050781 62.796875 C 75.5 64.246094 78.292969 65.007812 81.136719 65 L 82.699219 65 C 85.675781 65 88.449219 64.183594 90.785156 62.796875 L 106.089844 62.796875 C 113.648438 62.796875 119.796875 56.648438 119.796875 49.09375 L 119.796875 13.707031 C 119.796875 6.148438 113.648438 0 106.089844 0 "/>
<path style=" stroke:none;fill-rule:nonzero;fill:rgb(90.196078%,20%,7.058824%);fill-opacity:1;" d="M 106.089844 57.914062 L 92.964844 57.914062 L 92.964844 22.160156 L 106.089844 22.160156 C 110.964844 22.15625 114.914062 26.109375 114.914062 30.984375 L 114.914062 49.089844 C 114.914062 53.960938 110.964844 57.914062 106.089844 57.914062 "/>
<path style=" stroke:none;fill-rule:nonzero;fill:rgb(0%,50.196078%,23.921569%);fill-opacity:1;" d="M 13.910156 57.914062 L 27.039062 57.914062 L 27.039062 22.160156 L 13.910156 22.160156 C 9.039062 22.160156 5.089844 26.109375 5.089844 30.984375 L 5.089844 49.089844 C 5.085938 53.960938 9.039062 57.914062 13.910156 57.914062 "/>
<path style=" stroke:none;fill-rule:nonzero;fill:rgb(94.901961%,56.078431%,40%);fill-opacity:1;" d="M 110.984375 32.097656 L 100.867188 32.097656 L 100.867188 48.035156 L 111.082031 48.035156 L 111.082031 45.632812 L 103.945312 45.632812 L 103.945312 40.945312 L 108.941406 40.945312 L 108.941406 38.542969 L 103.945312 38.542969 L 103.945312 34.5 L 110.984375 34.5 Z M 110.984375 32.097656 "/>
<path style=" stroke:none;fill-rule:nonzero;fill:rgb(48.627451%,48.235294%,48.235294%);fill-opacity:1;" d="M 11.796875 9.898438 L 11.796875 14.777344 L 9.828125 14.777344 L 9.828125 6.246094 L 11.367188 6.246094 L 15.339844 11.257812 L 15.339844 6.246094 L 17.308594 6.246094 L 17.308594 14.773438 L 15.726562 14.773438 Z M 11.796875 9.898438 "/>
<path style=" stroke:none;fill-rule:nonzero;fill:rgb(48.627451%,48.235294%,48.235294%);fill-opacity:1;" d="M 22.59375 13.09375 C 22.929688 13.09375 23.214844 13.023438 23.445312 12.882812 C 23.675781 12.746094 23.871094 12.554688 24.011719 12.324219 C 24.160156 12.078125 24.265625 11.808594 24.316406 11.527344 C 24.378906 11.226562 24.40625 10.921875 24.40625 10.609375 L 24.40625 6.25 L 26.378906 6.25 L 26.378906 10.609375 C 26.382812 11.167969 26.308594 11.726562 26.15625 12.265625 C 26.019531 12.753906 25.785156 13.210938 25.46875 13.613281 C 25.152344 14 24.75 14.3125 24.292969 14.519531 C 23.816406 14.738281 23.25 14.847656 22.59375 14.847656 C 21.914062 14.847656 21.332031 14.734375 20.851562 14.5 C 20.371094 14.269531 19.980469 13.960938 19.679688 13.570312 C 19.375 13.167969 19.148438 12.707031 19.019531 12.21875 C 18.878906 11.695312 18.804688 11.152344 18.808594 10.609375 L 18.808594 6.25 L 20.78125 6.25 L 20.78125 10.609375 C 20.78125 10.9375 20.8125 11.25 20.875 11.546875 C 20.933594 11.824219 21.039062 12.09375 21.1875 12.339844 C 21.332031 12.570312 21.519531 12.753906 21.746094 12.890625 C 21.972656 13.027344 22.257812 13.09375 22.59375 13.09375 "/>
<path style=" stroke:none;fill-rule:nonzero;fill:rgb(48.627451%,48.235294%,48.235294%);fill-opacity:1;" d="M 34.386719 7.980469 L 31.792969 7.980469 L 31.792969 14.777344 L 29.824219 14.777344 L 29.824219 7.980469 L 27.214844 7.980469 L 27.214844 6.25 L 34.386719 6.25 Z M 35.363281 14.773438 L 35.363281 6.246094 L 39.203125 6.246094 C 39.589844 6.246094 39.96875 6.332031 40.316406 6.503906 C 40.648438 6.664062 40.949219 6.886719 41.199219 7.160156 C 41.445312 7.433594 41.640625 7.742188 41.78125 8.085938 C 41.921875 8.429688 41.988281 8.777344 41.988281 9.132812 C 41.988281 9.386719 41.957031 9.644531 41.894531 9.894531 C 41.832031 10.132812 41.738281 10.367188 41.617188 10.585938 C 41.378906 11.015625 41.027344 11.367188 40.597656 11.605469 L 42.554688 14.773438 L 40.332031 14.773438 L 38.617188 12.027344 L 37.332031 12.027344 L 37.332031 14.777344 Z M 37.332031 10.308594 L 39.132812 10.308594 C 39.363281 10.308594 39.566406 10.199219 39.730469 9.976562 C 39.902344 9.757812 39.984375 9.476562 39.984375 9.132812 C 39.984375 8.777344 39.890625 8.5 39.695312 8.289062 C 39.503906 8.082031 39.296875 7.976562 39.070312 7.976562 L 37.332031 7.976562 Z M 43.527344 6.25 L 45.496094 6.25 L 45.496094 14.773438 L 43.527344 14.773438 Z M 46.960938 10.609375 L 50.660156 10.609375 L 50.660156 12.335938 L 46.960938 12.335938 Z M 46.960938 10.609375 "/>
<path style=" stroke:none;fill-rule:nonzero;fill:rgb(48.627451%,48.235294%,48.235294%);fill-opacity:1;" d="M 57.242188 8.746094 L 56.976562 8.566406 C 56.585938 8.335938 56.164062 8.160156 55.726562 8.039062 C 55.480469 7.964844 55.21875 7.929688 54.960938 7.929688 C 54.625 7.929688 54.363281 7.988281 54.183594 8.109375 C 54.007812 8.226562 53.90625 8.425781 53.914062 8.640625 L 54.035156 9 L 54.378906 9.257812 C 54.554688 9.34375 54.738281 9.414062 54.929688 9.46875 C 55.152344 9.53125 55.40625 9.601562 55.695312 9.683594 C 56.066406 9.785156 56.4375 9.90625 56.796875 10.050781 C 57.125 10.183594 57.40625 10.34375 57.640625 10.542969 C 57.871094 10.738281 58.050781 10.976562 58.171875 11.257812 C 58.304688 11.574219 58.367188 11.917969 58.359375 12.265625 C 58.359375 12.746094 58.269531 13.152344 58.089844 13.484375 C 57.917969 13.804688 57.675781 14.082031 57.375 14.289062 C 57.0625 14.5 56.714844 14.648438 56.347656 14.734375 C 55.957031 14.824219 55.554688 14.871094 55.152344 14.871094 C 54.839844 14.871094 54.523438 14.847656 54.199219 14.796875 C 53.875 14.75 53.554688 14.679688 53.242188 14.589844 C 52.933594 14.496094 52.628906 14.386719 52.332031 14.257812 C 52.042969 14.136719 51.769531 13.988281 51.511719 13.8125 L 52.378906 12.097656 L 52.703125 12.324219 C 52.878906 12.4375 53.09375 12.550781 53.351562 12.660156 C 53.605469 12.773438 53.894531 12.875 54.214844 12.960938 C 54.53125 13.050781 54.859375 13.09375 55.1875 13.09375 C 55.886719 13.09375 56.234375 12.882812 56.234375 12.457031 L 56.078125 12.0625 L 55.644531 11.78125 C 55.433594 11.683594 55.21875 11.605469 54.996094 11.542969 C 54.746094 11.472656 54.476562 11.390625 54.179688 11.304688 C 53.832031 11.199219 53.488281 11.070312 53.160156 10.914062 C 52.894531 10.789062 52.652344 10.625 52.4375 10.429688 C 52.25 10.25 52.105469 10.03125 52.011719 9.789062 C 51.914062 9.523438 51.867188 9.238281 51.875 8.949219 C 51.875 8.5 51.957031 8.105469 52.125 7.761719 C 52.289062 7.425781 52.523438 7.128906 52.808594 6.890625 C 53.105469 6.648438 53.449219 6.46875 53.8125 6.355469 C 54.203125 6.234375 54.609375 6.175781 55.019531 6.175781 C 55.324219 6.175781 55.621094 6.203125 55.910156 6.261719 C 56.195312 6.316406 56.472656 6.386719 56.730469 6.476562 C 57.207031 6.636719 57.664062 6.851562 58.09375 7.113281 Z M 57.242188 8.746094 "/>
<path style=" stroke:none;fill-rule:nonzero;fill:rgb(48.627451%,48.235294%,48.235294%);fill-opacity:1;" d="M 59.019531 10.441406 C 59.019531 9.917969 59.113281 9.398438 59.296875 8.910156 C 59.476562 8.40625 59.75 7.945312 60.101562 7.546875 C 60.460938 7.136719 60.902344 6.808594 61.390625 6.574219 C 61.898438 6.324219 62.476562 6.199219 63.125 6.199219 C 63.886719 6.199219 64.546875 6.371094 65.109375 6.71875 C 65.644531 7.035156 66.078125 7.503906 66.359375 8.0625 L 64.84375 9.117188 C 64.765625 8.914062 64.652344 8.722656 64.507812 8.558594 L 64.0625 8.199219 L 63.566406 8.007812 L 63.078125 7.953125 C 62.757812 7.945312 62.445312 8.023438 62.164062 8.183594 C 61.914062 8.332031 61.695312 8.53125 61.53125 8.773438 C 61.355469 9.019531 61.230469 9.296875 61.152344 9.589844 C 61.066406 9.886719 61.023438 10.199219 61.023438 10.511719 C 61.023438 10.847656 61.074219 11.171875 61.175781 11.484375 C 61.273438 11.796875 61.414062 12.074219 61.59375 12.3125 C 61.769531 12.546875 61.992188 12.742188 62.25 12.882812 C 62.507812 13.023438 62.789062 13.09375 63.101562 13.09375 L 63.601562 13.027344 L 64.097656 12.824219 L 64.53125 12.464844 C 64.660156 12.316406 64.761719 12.132812 64.84375 11.917969 L 66.464844 12.867188 C 66.335938 13.179688 66.148438 13.464844 65.90625 13.707031 C 65.660156 13.957031 65.378906 14.167969 65.074219 14.332031 C 64.453125 14.664062 63.757812 14.84375 63.054688 14.847656 C 62.488281 14.855469 61.929688 14.722656 61.425781 14.46875 C 60.941406 14.222656 60.507812 13.882812 60.152344 13.464844 C 59.796875 13.046875 59.515625 12.566406 59.320312 12.050781 C 59.121094 11.535156 59.019531 10.992188 59.019531 10.441406 "/>
<path style=" stroke:none;fill-rule:nonzero;fill:rgb(48.627451%,48.235294%,48.235294%);fill-opacity:1;" d="M 70.957031 14.847656 C 70.382812 14.855469 69.816406 14.726562 69.300781 14.476562 C 68.8125 14.234375 68.378906 13.902344 68.019531 13.496094 C 67.660156 13.089844 67.382812 12.617188 67.191406 12.109375 C 66.996094 11.59375 66.898438 11.050781 66.898438 10.5 C 66.898438 9.941406 67 9.398438 67.203125 8.878906 C 67.410156 8.359375 67.691406 7.898438 68.058594 7.503906 C 68.421875 7.105469 68.851562 6.789062 69.355469 6.554688 C 69.855469 6.320312 70.402344 6.203125 70.992188 6.203125 C 71.601562 6.203125 72.152344 6.324219 72.652344 6.574219 C 73.136719 6.8125 73.574219 7.148438 73.929688 7.558594 C 74.285156 7.96875 74.566406 8.441406 74.753906 8.949219 C 74.941406 9.457031 75.039062 9.996094 75.039062 10.535156 C 75.039062 11.089844 74.9375 11.640625 74.734375 12.15625 C 74.539062 12.664062 74.25 13.128906 73.886719 13.53125 C 73.523438 13.929688 73.085938 14.253906 72.597656 14.488281 C 72.085938 14.730469 71.523438 14.855469 70.957031 14.847656 M 68.902344 10.523438 C 68.902344 10.851562 68.949219 11.171875 69.042969 11.476562 C 69.132812 11.785156 69.265625 12.0625 69.4375 12.300781 C 69.609375 12.539062 69.832031 12.738281 70.085938 12.878906 C 70.347656 13.023438 70.644531 13.09375 70.980469 13.09375 C 71.324219 13.09375 71.625 13.015625 71.882812 12.863281 C 72.136719 12.714844 72.351562 12.515625 72.523438 12.273438 C 72.699219 12.027344 72.824219 11.75 72.910156 11.445312 C 72.992188 11.136719 73.035156 10.820312 73.035156 10.5 C 73.035156 10.171875 72.988281 9.851562 72.898438 9.546875 C 72.8125 9.253906 72.675781 8.976562 72.496094 8.730469 C 72.324219 8.496094 72.101562 8.304688 71.847656 8.164062 C 71.578125 8.019531 71.273438 7.949219 70.96875 7.953125 C 70.65625 7.945312 70.34375 8.023438 70.070312 8.175781 C 69.816406 8.320312 69.597656 8.519531 69.425781 8.757812 C 69.25 9.007812 69.117188 9.285156 69.035156 9.582031 C 68.949219 9.886719 68.902344 10.207031 68.902344 10.523438 "/>
<path style=" stroke:none;fill-rule:nonzero;fill:rgb(48.627451%,48.235294%,48.235294%);fill-opacity:1;" d="M 76.191406 14.773438 L 76.191406 6.246094 L 80.035156 6.246094 C 80.433594 6.246094 80.804688 6.332031 81.148438 6.503906 C 81.480469 6.664062 81.777344 6.886719 82.027344 7.160156 C 82.277344 7.433594 82.472656 7.746094 82.609375 8.085938 C 82.75 8.429688 82.824219 8.777344 82.824219 9.132812 C 82.824219 9.390625 82.789062 9.644531 82.726562 9.894531 C 82.664062 10.132812 82.570312 10.367188 82.449219 10.585938 C 82.210938 11.011719 81.859375 11.367188 81.429688 11.605469 L 83.386719 14.773438 L 81.164062 14.773438 L 79.445312 12.027344 L 78.160156 12.027344 L 78.160156 14.777344 Z M 78.160156 10.308594 L 79.964844 10.308594 C 80.195312 10.308594 80.394531 10.199219 80.5625 9.976562 C 80.734375 9.757812 80.816406 9.476562 80.816406 9.132812 C 80.816406 8.777344 80.71875 8.5 80.527344 8.289062 C 80.335938 8.082031 80.128906 7.976562 79.902344 7.976562 L 78.160156 7.976562 Z M 90.351562 13.046875 L 90.351562 14.773438 L 84.359375 14.773438 L 84.359375 6.246094 L 90.242188 6.246094 L 90.242188 7.976562 L 86.328125 7.976562 L 86.328125 9.636719 L 89.691406 9.636719 L 89.691406 11.234375 L 86.328125 11.234375 L 86.328125 13.046875 Z M 90.351562 13.046875 "/>
<path style=" stroke:none;fill-rule:nonzero;fill:rgb(52.941176%,74.117647%,14.509804%);fill-opacity:1;" d="M 49.015625 57.914062 L 27.039062 57.914062 L 27.039062 22.160156 L 49.015625 22.160156 Z M 49.015625 57.914062 "/>
<path style=" stroke:none;fill-rule:nonzero;fill:rgb(100%,80%,0%);fill-opacity:1;" d="M 70.988281 57.914062 L 49.011719 57.914062 L 49.011719 22.160156 L 70.988281 22.160156 Z M 70.988281 57.914062 "/>
<path style=" stroke:none;fill-rule:nonzero;fill:rgb(45.490196%,67.058824%,49.411765%);fill-opacity:1;" d="M 13.96875 42.582031 L 16.398438 36.230469 L 18.726562 42.582031 Z M 17.550781 32.097656 L 15.410156 32.097656 L 8.800781 48.03125 L 11.902344 48.03125 L 13.058594 44.984375 L 19.617188 44.984375 L 20.746094 48.03125 L 24.136719 48.03125 Z M 17.550781 32.097656 "/>
<path style=" stroke:none;fill-rule:nonzero;fill:rgb(74.117647%,83.921569%,51.764706%);fill-opacity:1;" d="M 35.511719 45.632812 L 35.511719 41.128906 L 37.027344 41.128906 C 39.839844 41.152344 40.753906 41.980469 40.753906 43.296875 C 40.753906 44.9375 39.550781 45.632812 37.21875 45.632812 Z M 35.511719 38.910156 L 35.511719 34.496094 L 36.425781 34.496094 C 38.851562 34.496094 39.839844 35.214844 39.839844 36.648438 C 39.839844 37.960938 38.898438 38.863281 36.929688 38.886719 Z M 36.808594 32.097656 L 32.433594 32.097656 L 32.433594 48.03125 L 37.363281 48.03125 C 42.003906 48.03125 43.902344 46.160156 43.902344 43.296875 C 43.902344 41.726562 43.035156 40.480469 41.234375 39.765625 C 42.265625 38.957031 42.988281 37.824219 42.988281 36.371094 C 42.988281 34.011719 41.328125 32.097656 36.808594 32.097656 "/>
<path style=" stroke:none;fill-rule:nonzero;fill:rgb(100%,87.45098%,49.019608%);fill-opacity:1;" d="M 58.152344 31.863281 C 53.875 31.863281 50.582031 35.054688 50.582031 40.042969 C 50.582031 45.054688 53.609375 48.265625 58.199219 48.265625 C 61.15625 48.265625 63.273438 47.109375 64.59375 44.914062 L 62.285156 43.230469 C 61.347656 44.753906 60.050781 45.609375 58.320312 45.609375 C 55.390625 45.609375 53.753906 43.574219 53.753906 40.019531 C 53.753906 36.695312 55.4375 34.523438 58.03125 34.523438 C 59.738281 34.523438 60.988281 35.378906 61.589844 36.832031 L 64.519531 35.746094 C 63.558594 33.507812 61.804688 31.867188 58.152344 31.867188 "/>
<path style=" stroke:none;fill-rule:nonzero;fill:rgb(100%,100%,100%);fill-opacity:1;" d="M 81.136719 65 C 72.855469 65 66.117188 58.765625 66.117188 51.105469 L 66.117188 28.96875 C 66.117188 21.304688 72.855469 15.074219 81.136719 15.074219 L 82.699219 15.074219 C 90.980469 15.074219 97.71875 21.308594 97.71875 28.96875 L 97.71875 51.105469 C 97.71875 58.765625 90.980469 65 82.699219 65 Z M 81.136719 65 "/>
<path style=" stroke:none;fill-rule:nonzero;fill:rgb(93.72549%,49.019608%,0%);fill-opacity:1;" d="M 82.699219 62.378906 L 81.136719 62.378906 C 74.285156 62.378906 68.734375 57.332031 68.734375 51.105469 L 68.734375 28.96875 C 68.734375 22.738281 74.289062 17.691406 81.136719 17.691406 L 82.699219 17.691406 C 89.546875 17.691406 95.101562 22.738281 95.101562 28.96875 L 95.101562 51.101562 C 95.101562 57.332031 89.546875 62.378906 82.699219 62.378906 "/>
<path style=" stroke:none;fill-rule:nonzero;fill:rgb(100%,100%,100%);fill-opacity:1;" d="M 73.554688 50.425781 L 73.554688 29.175781 L 80.820312 29.175781 C 87.71875 29.175781 91.90625 33.085938 91.90625 39.800781 C 91.90625 45.773438 87.441406 50.425781 80.296875 50.425781 Z M 80.203125 46.082031 C 84.605469 46.082031 86.332031 43.160156 86.332031 39.800781 C 86.332031 35.980469 84.792969 33.609375 80.789062 33.609375 L 78.941406 33.609375 L 78.941406 46.082031 Z M 80.203125 46.082031 "/>
</g>
</svg>
