<?xml version="1.0" encoding="UTF-8"?>
<svg xmlns="http://www.w3.org/2000/svg" xmlns:xlink="http://www.w3.org/1999/xlink" viewBox="0 0 120 65" version="1.1">
<g id="surface1">
<path style=" stroke:none;fill-rule:nonzero;fill:rgb(100%,100%,100%);fill-opacity:1;" d="M 105.875 0 L 13.695312 0 C 6.136719 0 -0.0078125 6.148438 -0.0078125 13.703125 L -0.0078125 49.089844 C -0.0078125 56.644531 6.136719 62.792969 13.695312 62.792969 L 28.96875 62.792969 C 31.417969 64.242188 34.210938 65.003906 37.054688 65 L 38.617188 65 C 41.59375 65 44.367188 64.183594 46.703125 62.792969 L 105.875 62.792969 C 113.429688 62.792969 119.578125 56.644531 119.578125 49.089844 L 119.578125 13.703125 C 119.578125 6.148438 113.429688 0 105.875 0 "/>
<path style=" stroke:none;fill-rule:nonzero;fill:rgb(100%,80%,0%);fill-opacity:1;" d="M 70.773438 57.914062 L 48.796875 57.914062 L 48.796875 22.160156 L 70.773438 22.160156 Z M 70.773438 57.914062 "/>
<path style=" stroke:none;fill-rule:nonzero;fill:rgb(93.72549%,49.019608%,0%);fill-opacity:1;" d="M 92.746094 57.914062 L 70.773438 57.914062 L 70.773438 22.160156 L 92.746094 22.160156 Z M 92.746094 57.914062 "/>
<path style=" stroke:none;fill-rule:nonzero;fill:rgb(90.196078%,20%,7.058824%);fill-opacity:1;" d="M 105.875 57.914062 L 92.746094 57.914062 L 92.746094 22.160156 L 105.875 22.160156 C 110.746094 22.160156 114.699219 26.109375 114.699219 30.984375 L 114.699219 49.089844 C 114.699219 53.960938 110.746094 57.914062 105.875 57.914062 "/>
<path style=" stroke:none;fill-rule:nonzero;fill:rgb(0%,50.196078%,23.921569%);fill-opacity:1;" d="M 13.695312 57.914062 L 26.820312 57.914062 L 26.820312 22.160156 L 13.695312 22.160156 C 8.820312 22.15625 4.871094 26.109375 4.871094 30.984375 L 4.871094 49.089844 C 4.871094 53.960938 8.820312 57.914062 13.695312 57.914062 "/>
<path style=" stroke:none;fill-rule:nonzero;fill:rgb(100%,87.45098%,49.019608%);fill-opacity:1;" d="M 62.441406 31.863281 C 58.160156 31.863281 54.871094 35.054688 54.871094 40.042969 C 54.871094 45.054688 57.898438 48.265625 62.488281 48.265625 C 65.445312 48.265625 67.558594 47.109375 68.882812 44.914062 L 66.574219 43.230469 C 65.636719 44.753906 64.339844 45.609375 62.609375 45.609375 C 59.675781 45.609375 58.042969 43.574219 58.042969 40.019531 C 58.042969 36.691406 59.722656 34.523438 62.320312 34.523438 C 64.027344 34.523438 65.277344 35.375 65.878906 36.832031 L 68.808594 35.746094 C 67.847656 33.507812 66.09375 31.867188 62.441406 31.867188 "/>
<path style=" stroke:none;fill-rule:nonzero;fill:rgb(97.254902%,70.588235%,44.705882%);fill-opacity:1;" d="M 78.890625 45.632812 L 78.890625 34.546875 L 80.621094 34.546875 C 84.445312 34.546875 86.292969 36.578125 86.292969 40.066406 C 86.292969 43.253906 84.300781 45.632812 80.238281 45.632812 Z M 80.644531 32.097656 L 75.816406 32.097656 L 75.816406 48.03125 L 80.308594 48.03125 C 86.003906 48.03125 89.46875 44.640625 89.46875 40.066406 C 89.46875 35.078125 86.246094 32.097656 80.648438 32.097656 "/>
<path style=" stroke:none;fill-rule:nonzero;fill:rgb(94.901961%,56.078431%,40%);fill-opacity:1;" d="M 108.78125 32.097656 L 98.660156 32.097656 L 98.660156 48.03125 L 108.875 48.03125 L 108.875 45.632812 L 101.738281 45.632812 L 101.738281 40.941406 L 106.738281 40.941406 L 106.738281 38.539062 L 101.738281 38.539062 L 101.738281 34.5 L 108.78125 34.5 Z M 108.78125 32.097656 "/>
<path style=" stroke:none;fill-rule:nonzero;fill:rgb(48.627451%,48.235294%,48.235294%);fill-opacity:1;" d="M 11.582031 9.898438 L 11.582031 14.777344 L 9.609375 14.777344 L 9.609375 6.25 L 11.148438 6.25 L 15.125 11.257812 L 15.125 6.25 L 17.09375 6.25 L 17.09375 14.773438 L 15.507812 14.773438 Z M 11.582031 9.898438 "/>
<path style=" stroke:none;fill-rule:nonzero;fill:rgb(48.627451%,48.235294%,48.235294%);fill-opacity:1;" d="M 22.378906 13.09375 C 22.714844 13.09375 22.996094 13.023438 23.230469 12.882812 C 23.460938 12.742188 23.652344 12.558594 23.796875 12.324219 C 23.945312 12.078125 24.046875 11.808594 24.101562 11.527344 C 24.160156 11.226562 24.191406 10.921875 24.191406 10.609375 L 24.191406 6.25 L 26.160156 6.25 L 26.160156 10.609375 C 26.164062 11.167969 26.089844 11.726562 25.9375 12.265625 C 25.800781 12.753906 25.570312 13.210938 25.253906 13.613281 C 24.9375 14.003906 24.535156 14.3125 24.078125 14.519531 C 23.601562 14.738281 23.035156 14.847656 22.378906 14.847656 C 21.695312 14.847656 21.117188 14.734375 20.636719 14.5 C 20.15625 14.269531 19.765625 13.960938 19.464844 13.570312 C 19.15625 13.167969 18.933594 12.707031 18.804688 12.21875 C 18.660156 11.691406 18.589844 11.152344 18.59375 10.609375 L 18.59375 6.25 L 20.5625 6.25 L 20.5625 10.609375 C 20.5625 10.9375 20.597656 11.25 20.660156 11.546875 C 20.71875 11.824219 20.824219 12.09375 20.972656 12.339844 C 21.117188 12.570312 21.300781 12.753906 21.53125 12.890625 C 21.757812 13.027344 22.042969 13.09375 22.378906 13.09375 "/>
<path style=" stroke:none;fill-rule:nonzero;fill:rgb(48.627451%,48.235294%,48.235294%);fill-opacity:1;" d="M 34.171875 7.976562 L 31.574219 7.976562 L 31.574219 14.773438 L 29.605469 14.773438 L 29.605469 7.976562 L 27 7.976562 L 27 6.25 L 34.171875 6.25 Z M 35.144531 14.773438 L 35.144531 6.25 L 38.984375 6.25 C 39.371094 6.246094 39.75 6.332031 40.097656 6.503906 C 40.429688 6.664062 40.730469 6.886719 40.980469 7.160156 C 41.226562 7.433594 41.421875 7.742188 41.5625 8.085938 C 41.703125 8.429688 41.773438 8.777344 41.773438 9.132812 C 41.773438 9.640625 41.644531 10.140625 41.402344 10.585938 C 41.160156 11.011719 40.808594 11.367188 40.378906 11.605469 L 42.335938 14.773438 L 40.113281 14.773438 L 38.398438 12.027344 L 37.113281 12.027344 L 37.113281 14.777344 Z M 37.113281 10.308594 L 38.914062 10.308594 C 39.148438 10.308594 39.347656 10.199219 39.515625 9.976562 C 39.683594 9.757812 39.765625 9.476562 39.765625 9.132812 C 39.765625 8.777344 39.671875 8.5 39.480469 8.289062 C 39.285156 8.082031 39.078125 7.976562 38.855469 7.976562 L 37.113281 7.976562 Z M 43.308594 6.25 L 45.277344 6.25 L 45.277344 14.773438 L 43.308594 14.773438 Z M 46.742188 10.609375 L 50.445312 10.609375 L 50.445312 12.335938 L 46.742188 12.335938 Z M 46.742188 10.609375 "/>
<path style=" stroke:none;fill-rule:nonzero;fill:rgb(48.627451%,48.235294%,48.235294%);fill-opacity:1;" d="M 57.023438 8.746094 L 56.761719 8.566406 C 56.367188 8.335938 55.949219 8.160156 55.511719 8.039062 C 55.261719 7.96875 55.003906 7.929688 54.742188 7.929688 C 54.40625 7.929688 54.148438 7.992188 53.96875 8.109375 C 53.789062 8.226562 53.6875 8.429688 53.699219 8.640625 L 53.820312 9 L 54.160156 9.257812 C 54.335938 9.34375 54.523438 9.414062 54.710938 9.46875 C 54.933594 9.53125 55.1875 9.605469 55.476562 9.683594 C 55.882812 9.796875 56.253906 9.917969 56.578125 10.050781 C 56.910156 10.183594 57.1875 10.347656 57.421875 10.542969 C 57.652344 10.738281 57.832031 10.976562 57.957031 11.257812 C 58.085938 11.578125 58.152344 11.921875 58.140625 12.265625 C 58.140625 12.746094 58.050781 13.152344 57.871094 13.484375 C 57.703125 13.804688 57.457031 14.082031 57.15625 14.289062 C 56.847656 14.5 56.496094 14.652344 56.128906 14.734375 C 55.738281 14.828125 55.335938 14.875 54.933594 14.871094 C 54.289062 14.871094 53.644531 14.773438 53.027344 14.589844 C 52.714844 14.5 52.410156 14.386719 52.113281 14.257812 C 51.828125 14.136719 51.554688 13.988281 51.296875 13.816406 L 52.160156 12.097656 L 52.484375 12.324219 C 52.660156 12.441406 52.878906 12.550781 53.132812 12.660156 C 53.390625 12.773438 53.679688 12.875 54 12.960938 C 54.316406 13.050781 54.640625 13.09375 54.96875 13.09375 C 55.667969 13.09375 56.015625 12.882812 56.015625 12.457031 L 55.859375 12.0625 L 55.425781 11.78125 C 55.21875 11.6875 55 11.609375 54.777344 11.546875 L 53.960938 11.304688 C 53.613281 11.199219 53.273438 11.070312 52.941406 10.914062 C 52.679688 10.792969 52.433594 10.628906 52.222656 10.429688 C 52.035156 10.25 51.886719 10.035156 51.796875 9.792969 C 51.699219 9.523438 51.652344 9.238281 51.65625 8.953125 C 51.65625 8.503906 51.742188 8.109375 51.910156 7.761719 C 52.070312 7.425781 52.304688 7.128906 52.59375 6.890625 C 52.890625 6.648438 53.230469 6.46875 53.597656 6.359375 C 53.988281 6.234375 54.394531 6.175781 54.804688 6.175781 C 55.109375 6.175781 55.40625 6.203125 55.691406 6.261719 C 55.980469 6.316406 56.253906 6.390625 56.515625 6.476562 C 56.988281 6.640625 57.445312 6.855469 57.878906 7.113281 Z M 57.023438 8.746094 "/>
<path style=" stroke:none;fill-rule:nonzero;fill:rgb(48.627451%,48.235294%,48.235294%);fill-opacity:1;" d="M 58.800781 10.441406 C 58.800781 9.929688 58.894531 9.417969 59.078125 8.910156 C 59.257812 8.40625 59.53125 7.945312 59.882812 7.546875 C 60.242188 7.136719 60.683594 6.808594 61.175781 6.574219 C 61.679688 6.324219 62.261719 6.199219 62.910156 6.199219 C 63.671875 6.199219 64.332031 6.371094 64.890625 6.71875 C 65.429688 7.035156 65.863281 7.503906 66.140625 8.0625 L 64.628906 9.117188 C 64.550781 8.914062 64.4375 8.722656 64.289062 8.558594 L 63.847656 8.199219 L 63.347656 8.007812 L 62.859375 7.953125 C 62.507812 7.953125 62.203125 8.03125 61.949219 8.183594 C 61.699219 8.328125 61.480469 8.53125 61.3125 8.769531 C 61.140625 9.019531 61.011719 9.292969 60.933594 9.585938 C 60.851562 9.886719 60.808594 10.199219 60.808594 10.511719 C 60.808594 10.847656 60.859375 11.171875 60.957031 11.484375 C 61.050781 11.78125 61.191406 12.0625 61.378906 12.3125 C 61.550781 12.546875 61.777344 12.742188 62.03125 12.882812 C 62.292969 13.023438 62.589844 13.097656 62.886719 13.09375 L 63.382812 13.027344 L 63.878906 12.824219 L 64.316406 12.464844 C 64.441406 12.316406 64.546875 12.132812 64.628906 11.917969 L 66.25 12.863281 C 66.121094 13.179688 65.929688 13.464844 65.691406 13.707031 C 65.445312 13.957031 65.164062 14.167969 64.855469 14.332031 C 64.234375 14.667969 63.542969 14.84375 62.835938 14.847656 C 62.246094 14.847656 61.703125 14.722656 61.210938 14.46875 C 60.722656 14.222656 60.292969 13.882812 59.9375 13.464844 C 59.578125 13.046875 59.296875 12.566406 59.101562 12.050781 C 58.90625 11.535156 58.804688 10.992188 58.800781 10.441406 "/>
<path style=" stroke:none;fill-rule:nonzero;fill:rgb(48.627451%,48.235294%,48.235294%);fill-opacity:1;" d="M 70.738281 14.847656 C 70.132812 14.847656 69.578125 14.722656 69.082031 14.476562 C 68.597656 14.234375 68.164062 13.902344 67.804688 13.496094 C 67.445312 13.089844 67.164062 12.617188 66.976562 12.109375 C 66.78125 11.59375 66.679688 11.050781 66.679688 10.5 C 66.679688 9.945312 66.785156 9.394531 66.988281 8.878906 C 67.183594 8.371094 67.472656 7.90625 67.839844 7.503906 C 68.207031 7.105469 68.648438 6.785156 69.136719 6.554688 C 69.636719 6.320312 70.183594 6.203125 70.777344 6.203125 C 71.382812 6.203125 71.9375 6.324219 72.433594 6.574219 C 72.917969 6.8125 73.355469 7.148438 73.710938 7.558594 C 74.070312 7.96875 74.347656 8.441406 74.535156 8.949219 C 74.722656 9.457031 74.820312 9.996094 74.820312 10.535156 C 74.824219 11.089844 74.71875 11.640625 74.515625 12.15625 C 74.320312 12.664062 74.035156 13.128906 73.671875 13.53125 C 73.308594 13.933594 72.867188 14.257812 72.378906 14.488281 C 71.867188 14.730469 71.308594 14.851562 70.738281 14.847656 M 68.6875 10.523438 C 68.6875 10.851562 68.734375 11.171875 68.824219 11.476562 C 68.917969 11.785156 69.050781 12.0625 69.222656 12.300781 C 69.394531 12.542969 69.609375 12.734375 69.871094 12.878906 C 70.144531 13.027344 70.453125 13.097656 70.761719 13.09375 C 71.109375 13.09375 71.410156 13.015625 71.664062 12.863281 C 71.921875 12.714844 72.136719 12.515625 72.308594 12.273438 C 72.484375 12.019531 72.613281 11.738281 72.691406 11.445312 C 72.777344 11.136719 72.816406 10.820312 72.816406 10.5 C 72.816406 10.175781 72.769531 9.855469 72.679688 9.546875 C 72.59375 9.25 72.457031 8.976562 72.277344 8.726562 C 72.105469 8.496094 71.882812 8.300781 71.628906 8.164062 C 71.371094 8.023438 71.082031 7.953125 70.753906 7.953125 C 70.410156 7.953125 70.109375 8.027344 69.851562 8.175781 C 69.597656 8.320312 69.378906 8.519531 69.210938 8.757812 C 69.03125 9.007812 68.902344 9.285156 68.820312 9.582031 C 68.730469 9.886719 68.6875 10.207031 68.6875 10.523438 "/>
<path style=" stroke:none;fill-rule:nonzero;fill:rgb(48.627451%,48.235294%,48.235294%);fill-opacity:1;" d="M 75.976562 14.773438 L 75.976562 6.25 L 79.820312 6.25 C 80.21875 6.25 80.589844 6.332031 80.929688 6.503906 C 81.261719 6.664062 81.5625 6.886719 81.8125 7.160156 C 82.0625 7.433594 82.253906 7.742188 82.394531 8.085938 C 82.53125 8.417969 82.605469 8.773438 82.605469 9.132812 C 82.605469 9.386719 82.574219 9.644531 82.511719 9.894531 C 82.445312 10.132812 82.355469 10.367188 82.234375 10.585938 C 81.996094 11.011719 81.640625 11.367188 81.214844 11.605469 L 83.171875 14.773438 L 80.949219 14.773438 L 79.230469 12.027344 L 77.945312 12.027344 L 77.945312 14.777344 Z M 77.945312 10.308594 L 79.746094 10.308594 C 79.980469 10.308594 80.179688 10.199219 80.347656 9.976562 C 80.515625 9.757812 80.601562 9.476562 80.601562 9.132812 C 80.601562 8.777344 80.503906 8.5 80.3125 8.289062 C 80.117188 8.082031 79.910156 7.976562 79.6875 7.976562 L 77.945312 7.976562 Z M 90.136719 13.046875 L 90.136719 14.773438 L 84.140625 14.773438 L 84.140625 6.25 L 90.027344 6.25 L 90.027344 7.976562 L 86.113281 7.976562 L 86.113281 9.636719 L 89.472656 9.636719 L 89.472656 11.230469 L 86.113281 11.230469 L 86.113281 13.046875 Z M 90.136719 13.046875 "/>
<path style=" stroke:none;fill-rule:nonzero;fill:rgb(45.490196%,67.058824%,49.411765%);fill-opacity:1;" d="M 11.183594 42.582031 L 13.609375 36.230469 L 15.945312 42.582031 Z M 14.765625 32.097656 L 12.625 32.097656 L 6.015625 48.03125 L 9.117188 48.03125 L 10.269531 44.984375 L 16.832031 44.984375 L 17.960938 48.03125 L 21.347656 48.03125 Z M 14.765625 32.097656 "/>
<path style=" stroke:none;fill-rule:nonzero;fill:rgb(100%,100%,100%);fill-opacity:1;" d="M 37.054688 65 C 28.773438 65 22.035156 58.765625 22.035156 51.105469 L 22.035156 28.96875 C 22.035156 21.304688 28.773438 15.074219 37.054688 15.074219 L 38.617188 15.074219 C 46.898438 15.074219 53.636719 21.308594 53.636719 28.96875 L 53.636719 51.105469 C 53.636719 58.765625 46.898438 65 38.617188 65 Z M 37.054688 65 "/>
<path style=" stroke:none;fill-rule:nonzero;fill:rgb(52.941176%,74.117647%,14.509804%);fill-opacity:1;" d="M 38.617188 62.378906 L 37.054688 62.378906 C 30.203125 62.378906 24.652344 57.332031 24.652344 51.105469 L 24.652344 28.96875 C 24.652344 22.742188 30.207031 17.691406 37.054688 17.691406 L 38.617188 17.691406 C 45.464844 17.691406 51.015625 22.742188 51.015625 28.96875 L 51.015625 51.105469 C 51.015625 57.332031 45.464844 62.378906 38.617188 62.378906 "/>
<path style=" stroke:none;fill-rule:nonzero;fill:rgb(100%,100%,100%);fill-opacity:1;" d="M 31.351562 49.808594 L 31.351562 28.5625 L 37.894531 28.5625 C 42.929688 28.5625 45.070312 31.210938 45.070312 34.597656 C 45.070312 36.445312 44.171875 38.011719 42.785156 38.722656 C 44.722656 39.367188 46.171875 41.03125 46.171875 43.28125 C 46.171875 47.1875 43.710938 49.808594 38.558594 49.808594 Z M 36.414062 37.210938 L 37.371094 37.210938 C 38.816406 37.210938 39.859375 36.628906 39.859375 34.996094 C 39.859375 33.363281 38.816406 32.902344 37.371094 32.902344 L 36.414062 32.902344 Z M 36.414062 41.183594 L 36.414062 45.46875 L 38.328125 45.46875 C 39.800781 45.46875 40.960938 44.878906 40.960938 43.28125 C 40.960938 41.707031 39.6875 41.183594 38.066406 41.183594 Z M 36.414062 41.183594 "/>
</g>
</svg>
