<?xml version="1.0" encoding="UTF-8"?>
<svg xmlns="http://www.w3.org/2000/svg" xmlns:xlink="http://www.w3.org/1999/xlink"  viewBox="0 0 120 65" version="1.1">
<g id="surface1">
<path style=" stroke:none;fill-rule:nonzero;fill:rgb(100%,100%,100%);fill-opacity:1;" d="M 119.585938 13.703125 C 119.585938 6.148438 113.4375 0 105.882812 0 L 13.707031 0 C 6.148438 0 0 6.148438 0 13.703125 L 0 49.089844 C 0 56.648438 6.148438 62.792969 13.707031 62.792969 L 94.910156 62.792969 C 97.359375 64.242188 100.15625 65.007812 103 65 L 104.558594 65 C 112.84375 65 119.582031 58.765625 119.582031 51.105469 L 119.582031 49.207031 L 119.585938 49.089844 Z M 119.585938 13.703125 "/>
<path style=" stroke:none;fill-rule:nonzero;fill:rgb(0%,50.196078%,23.921569%);fill-opacity:1;" d="M 13.707031 57.914062 L 26.832031 57.914062 L 26.832031 22.160156 L 13.703125 22.160156 C 8.832031 22.15625 4.878906 26.109375 4.878906 30.984375 L 4.878906 49.089844 C 4.878906 53.960938 8.832031 57.914062 13.703125 57.914062 "/>
<path style=" stroke:none;fill-rule:nonzero;fill:rgb(48.627451%,48.235294%,48.235294%);fill-opacity:1;" d="M 11.589844 9.898438 L 11.589844 14.773438 L 9.621094 14.773438 L 9.621094 6.25 L 11.15625 6.25 L 15.132812 11.257812 L 15.132812 6.25 L 17.101562 6.25 L 17.101562 14.773438 L 15.515625 14.773438 Z M 11.589844 9.898438 "/>
<path style=" stroke:none;fill-rule:nonzero;fill:rgb(48.627451%,48.235294%,48.235294%);fill-opacity:1;" d="M 22.386719 13.09375 C 22.722656 13.09375 23.007812 13.023438 23.238281 12.882812 C 23.472656 12.742188 23.660156 12.558594 23.804688 12.324219 C 23.953125 12.082031 24.058594 11.808594 24.109375 11.527344 C 24.171875 11.226562 24.199219 10.921875 24.199219 10.609375 L 24.199219 6.246094 L 26.167969 6.246094 L 26.167969 10.609375 C 26.175781 11.167969 26.097656 11.726562 25.949219 12.265625 C 25.8125 12.753906 25.578125 13.210938 25.261719 13.609375 C 24.945312 14 24.542969 14.3125 24.085938 14.519531 C 23.609375 14.738281 23.042969 14.847656 22.386719 14.847656 C 21.707031 14.847656 21.125 14.730469 20.644531 14.5 C 20.164062 14.265625 19.773438 13.957031 19.476562 13.566406 C 19.167969 13.167969 18.941406 12.707031 18.816406 12.21875 C 18.671875 11.691406 18.601562 11.152344 18.601562 10.609375 L 18.601562 6.246094 L 20.574219 6.246094 L 20.574219 10.609375 C 20.574219 10.933594 20.605469 11.25 20.671875 11.546875 C 20.726562 11.824219 20.832031 12.09375 20.980469 12.339844 C 21.125 12.570312 21.3125 12.753906 21.539062 12.890625 C 21.769531 13.027344 22.050781 13.09375 22.386719 13.09375 "/>
<path style=" stroke:none;fill-rule:nonzero;fill:rgb(48.627451%,48.235294%,48.235294%);fill-opacity:1;" d="M 34.179688 7.976562 L 31.585938 7.976562 L 31.585938 14.773438 L 29.617188 14.773438 L 29.617188 7.976562 L 27.011719 7.976562 L 27.011719 6.25 L 34.179688 6.25 Z M 35.152344 14.773438 L 35.152344 6.25 L 38.996094 6.25 C 39.398438 6.25 39.765625 6.332031 40.109375 6.5 C 40.449219 6.667969 40.742188 6.890625 40.988281 7.160156 C 41.238281 7.433594 41.429688 7.742188 41.570312 8.085938 C 41.710938 8.429688 41.78125 8.777344 41.78125 9.132812 C 41.78125 9.640625 41.65625 10.140625 41.410156 10.585938 C 41.171875 11.011719 40.816406 11.367188 40.386719 11.605469 L 42.347656 14.773438 L 40.125 14.773438 L 38.40625 12.027344 L 37.121094 12.027344 L 37.121094 14.777344 Z M 37.121094 10.304688 L 38.921875 10.304688 C 39.15625 10.304688 39.355469 10.199219 39.523438 9.976562 C 39.695312 9.757812 39.777344 9.476562 39.777344 9.132812 C 39.777344 8.777344 39.679688 8.5 39.488281 8.289062 C 39.296875 8.082031 39.089844 7.976562 38.863281 7.976562 L 37.121094 7.976562 Z M 43.320312 6.25 L 45.289062 6.25 L 45.289062 14.773438 L 43.320312 14.773438 Z M 46.753906 10.609375 L 50.453125 10.609375 L 50.453125 12.335938 L 46.753906 12.335938 Z M 46.753906 10.609375 "/>
<path style=" stroke:none;fill-rule:nonzero;fill:rgb(48.627451%,48.235294%,48.235294%);fill-opacity:1;" d="M 57.035156 8.746094 L 56.769531 8.566406 C 56.378906 8.335938 55.957031 8.160156 55.519531 8.035156 C 55.269531 7.964844 55.011719 7.929688 54.753906 7.929688 C 54.414062 7.929688 54.15625 7.988281 53.976562 8.109375 C 53.800781 8.226562 53.695312 8.425781 53.707031 8.636719 L 53.828125 9 L 54.171875 9.257812 C 54.316406 9.332031 54.503906 9.402344 54.722656 9.46875 C 54.941406 9.53125 55.195312 9.601562 55.484375 9.683594 C 55.859375 9.785156 56.230469 9.90625 56.589844 10.050781 C 56.894531 10.167969 57.179688 10.332031 57.429688 10.542969 C 57.660156 10.738281 57.839844 10.976562 57.964844 11.257812 C 58.089844 11.535156 58.152344 11.875 58.152344 12.265625 C 58.152344 12.746094 58.058594 13.152344 57.882812 13.484375 C 57.710938 13.804688 57.464844 14.082031 57.167969 14.289062 C 56.855469 14.5 56.507812 14.648438 56.140625 14.734375 C 55.746094 14.824219 55.347656 14.871094 54.945312 14.871094 C 54.296875 14.867188 53.65625 14.773438 53.035156 14.589844 C 52.722656 14.496094 52.417969 14.386719 52.121094 14.257812 C 51.835938 14.136719 51.5625 13.988281 51.304688 13.8125 L 52.171875 12.097656 L 52.492188 12.324219 C 52.671875 12.4375 52.886719 12.550781 53.140625 12.660156 C 53.398438 12.773438 53.6875 12.875 54.007812 12.960938 C 54.324219 13.046875 54.652344 13.09375 54.980469 13.09375 C 55.675781 13.09375 56.023438 12.878906 56.023438 12.457031 L 55.867188 12.0625 L 55.4375 11.78125 C 55.226562 11.683594 55.007812 11.605469 54.789062 11.542969 L 53.972656 11.304688 C 53.621094 11.199219 53.28125 11.070312 52.949219 10.914062 C 52.6875 10.789062 52.441406 10.625 52.230469 10.425781 C 52.042969 10.25 51.898438 10.03125 51.804688 9.792969 C 51.707031 9.523438 51.660156 9.238281 51.667969 8.949219 C 51.667969 8.5 51.75 8.105469 51.917969 7.761719 C 52.082031 7.425781 52.3125 7.128906 52.601562 6.890625 C 52.898438 6.648438 53.238281 6.46875 53.605469 6.355469 C 53.996094 6.234375 54.402344 6.175781 54.8125 6.175781 C 55.117188 6.175781 55.414062 6.203125 55.703125 6.257812 C 55.980469 6.3125 56.253906 6.386719 56.523438 6.476562 C 57 6.636719 57.457031 6.851562 57.886719 7.113281 Z M 57.035156 8.746094 "/>
<path style=" stroke:none;fill-rule:nonzero;fill:rgb(48.627451%,48.235294%,48.235294%);fill-opacity:1;" d="M 58.8125 10.441406 C 58.8125 9.929688 58.902344 9.417969 59.085938 8.910156 C 59.269531 8.40625 59.539062 7.945312 59.890625 7.546875 C 60.253906 7.136719 60.691406 6.808594 61.183594 6.574219 C 61.691406 6.324219 62.269531 6.199219 62.917969 6.199219 C 63.679688 6.199219 64.339844 6.371094 64.902344 6.71875 C 65.4375 7.035156 65.871094 7.503906 66.148438 8.0625 L 64.636719 9.117188 C 64.558594 8.914062 64.445312 8.722656 64.300781 8.558594 L 63.855469 8.199219 L 63.359375 8.007812 L 62.871094 7.953125 C 62.550781 7.945312 62.234375 8.023438 61.957031 8.183594 C 61.707031 8.332031 61.488281 8.53125 61.320312 8.769531 C 61.148438 9.019531 61.023438 9.296875 60.945312 9.585938 C 60.859375 9.886719 60.816406 10.199219 60.816406 10.511719 C 60.816406 10.847656 60.867188 11.171875 60.96875 11.484375 C 61.058594 11.78125 61.203125 12.0625 61.386719 12.3125 C 61.566406 12.554688 61.785156 12.742188 62.042969 12.882812 C 62.304688 13.023438 62.597656 13.097656 62.894531 13.09375 L 63.394531 13.027344 L 63.890625 12.824219 L 64.324219 12.464844 C 64.449219 12.316406 64.554688 12.132812 64.636719 11.917969 L 66.257812 12.867188 C 66.128906 13.179688 65.9375 13.464844 65.699219 13.707031 C 65.453125 13.957031 65.171875 14.167969 64.863281 14.332031 C 64.242188 14.667969 63.550781 14.84375 62.847656 14.847656 C 62.253906 14.847656 61.710938 14.722656 61.21875 14.46875 C 60.734375 14.222656 60.300781 13.882812 59.945312 13.464844 C 59.585938 13.046875 59.304688 12.566406 59.113281 12.050781 C 58.914062 11.535156 58.8125 10.992188 58.8125 10.441406 "/>
<path style=" stroke:none;fill-rule:nonzero;fill:rgb(48.627451%,48.235294%,48.235294%);fill-opacity:1;" d="M 70.75 14.847656 C 70.140625 14.847656 69.589844 14.722656 69.09375 14.476562 C 68.605469 14.234375 68.171875 13.902344 67.8125 13.496094 C 67.453125 13.089844 67.171875 12.617188 66.984375 12.109375 C 66.789062 11.59375 66.6875 11.050781 66.691406 10.5 C 66.691406 9.941406 66.792969 9.398438 66.996094 8.878906 C 67.191406 8.371094 67.480469 7.90625 67.847656 7.503906 C 68.214844 7.105469 68.65625 6.785156 69.144531 6.554688 C 69.644531 6.320312 70.191406 6.199219 70.785156 6.199219 C 71.390625 6.199219 71.945312 6.324219 72.441406 6.574219 C 72.929688 6.8125 73.363281 7.148438 73.722656 7.558594 C 74.078125 7.96875 74.355469 8.441406 74.542969 8.949219 C 74.734375 9.457031 74.832031 9.996094 74.832031 10.535156 C 74.832031 11.089844 74.730469 11.640625 74.527344 12.15625 C 74.332031 12.664062 74.042969 13.128906 73.679688 13.53125 C 73.316406 13.933594 72.878906 14.257812 72.390625 14.488281 C 71.875 14.730469 71.316406 14.851562 70.75 14.847656 M 68.695312 10.523438 C 68.695312 10.851562 68.742188 11.171875 68.835938 11.476562 C 68.925781 11.785156 69.058594 12.0625 69.230469 12.300781 C 69.398438 12.539062 69.621094 12.738281 69.878906 12.878906 C 70.152344 13.027344 70.460938 13.101562 70.773438 13.09375 C 71.117188 13.09375 71.417969 13.015625 71.671875 12.863281 C 71.929688 12.714844 72.148438 12.511719 72.316406 12.273438 C 72.492188 12.019531 72.621094 11.738281 72.699219 11.441406 C 72.785156 11.136719 72.828125 10.820312 72.828125 10.5 C 72.828125 10.171875 72.78125 9.851562 72.6875 9.546875 C 72.605469 9.25 72.46875 8.976562 72.285156 8.726562 C 72.113281 8.496094 71.890625 8.300781 71.636719 8.164062 C 71.382812 8.023438 71.089844 7.953125 70.761719 7.953125 C 70.417969 7.953125 70.117188 8.027344 69.859375 8.175781 C 69.609375 8.320312 69.386719 8.519531 69.21875 8.757812 C 69.042969 9.007812 68.910156 9.285156 68.828125 9.582031 C 68.738281 9.886719 68.695312 10.207031 68.695312 10.523438 "/>
<path style=" stroke:none;fill-rule:nonzero;fill:rgb(48.627451%,48.235294%,48.235294%);fill-opacity:1;" d="M 75.984375 14.773438 L 75.984375 6.25 L 79.828125 6.25 C 80.226562 6.25 80.597656 6.332031 80.9375 6.5 C 81.273438 6.664062 81.570312 6.886719 81.820312 7.160156 C 82.070312 7.433594 82.261719 7.742188 82.402344 8.085938 C 82.539062 8.417969 82.613281 8.773438 82.613281 9.132812 C 82.613281 9.386719 82.582031 9.644531 82.519531 9.890625 C 82.457031 10.132812 82.363281 10.367188 82.242188 10.585938 C 82.003906 11.011719 81.648438 11.367188 81.222656 11.605469 L 83.179688 14.773438 L 80.957031 14.773438 L 79.238281 12.027344 L 77.953125 12.027344 L 77.953125 14.777344 Z M 77.953125 10.304688 L 79.757812 10.304688 C 79.988281 10.304688 80.1875 10.199219 80.355469 9.976562 C 80.523438 9.757812 80.609375 9.476562 80.609375 9.132812 C 80.609375 8.777344 80.511719 8.5 80.320312 8.289062 C 80.128906 8.082031 79.917969 7.976562 79.695312 7.976562 L 77.953125 7.976562 Z M 90.144531 13.046875 L 90.144531 14.773438 L 84.152344 14.773438 L 84.152344 6.25 L 90.035156 6.25 L 90.035156 7.976562 L 86.121094 7.976562 L 86.121094 9.636719 L 89.484375 9.636719 L 89.484375 11.230469 L 86.121094 11.230469 L 86.121094 13.046875 Z M 90.144531 13.046875 "/>
<path style=" stroke:none;fill-rule:nonzero;fill:rgb(52.941176%,74.117647%,14.509804%);fill-opacity:1;" d="M 48.804688 57.914062 L 26.828125 57.914062 L 26.828125 22.160156 L 48.804688 22.160156 Z M 48.804688 57.914062 "/>
<path style=" stroke:none;fill-rule:nonzero;fill:rgb(100%,80%,0%);fill-opacity:1;" d="M 70.78125 57.914062 L 48.804688 57.914062 L 48.804688 22.160156 L 70.78125 22.160156 Z M 70.78125 57.914062 "/>
<path style=" stroke:none;fill-rule:nonzero;fill:rgb(93.72549%,49.019608%,0%);fill-opacity:1;" d="M 92.757812 57.914062 L 70.78125 57.914062 L 70.78125 22.160156 L 92.757812 22.160156 Z M 92.757812 57.914062 "/>
<path style=" stroke:none;fill-rule:nonzero;fill:rgb(45.490196%,67.058824%,49.411765%);fill-opacity:1;" d="M 13.761719 42.582031 L 16.1875 36.230469 L 18.519531 42.582031 Z M 17.34375 32.097656 L 15.203125 32.097656 L 8.59375 48.03125 L 11.695312 48.03125 L 12.847656 44.984375 L 19.410156 44.984375 L 20.539062 48.03125 L 23.925781 48.03125 Z M 17.34375 32.097656 "/>
<path style=" stroke:none;fill-rule:nonzero;fill:rgb(74.117647%,83.921569%,51.764706%);fill-opacity:1;" d="M 35.304688 45.628906 L 35.304688 41.128906 L 36.816406 41.128906 C 39.628906 41.148438 40.542969 41.980469 40.542969 43.296875 C 40.542969 44.9375 39.339844 45.628906 37.011719 45.628906 Z M 35.304688 38.910156 L 35.304688 34.496094 L 36.21875 34.496094 C 38.644531 34.496094 39.628906 35.214844 39.628906 36.648438 C 39.628906 37.960938 38.691406 38.863281 36.722656 38.886719 Z M 36.601562 32.097656 L 32.226562 32.097656 L 32.226562 48.03125 L 37.15625 48.03125 C 41.792969 48.03125 43.695312 46.160156 43.695312 43.296875 C 43.695312 41.726562 42.828125 40.480469 41.023438 39.765625 C 42.058594 38.957031 42.777344 37.824219 42.777344 36.367188 C 42.777344 34.011719 41.121094 32.097656 36.601562 32.097656 "/>
<path style=" stroke:none;fill-rule:nonzero;fill:rgb(100%,87.45098%,49.019608%);fill-opacity:1;" d="M 60.164062 31.863281 C 55.886719 31.863281 52.59375 35.054688 52.59375 40.042969 C 52.59375 45.054688 55.621094 48.265625 60.210938 48.265625 C 63.167969 48.265625 65.28125 47.109375 66.605469 44.914062 L 64.296875 43.230469 C 63.359375 44.753906 62.0625 45.609375 60.332031 45.609375 C 57.398438 45.609375 55.765625 43.574219 55.765625 40.019531 C 55.765625 36.691406 57.445312 34.523438 60.042969 34.523438 C 61.75 34.523438 63 35.375 63.601562 36.832031 L 66.53125 35.746094 C 65.570312 33.507812 63.816406 31.867188 60.164062 31.867188 "/>
<path style=" stroke:none;fill-rule:nonzero;fill:rgb(100%,100%,100%);fill-opacity:1;" d="M 103 65 C 94.71875 65 87.976562 58.765625 87.976562 51.105469 L 87.976562 28.96875 C 87.976562 21.304688 94.71875 15.074219 103 15.074219 L 104.558594 15.074219 C 112.84375 15.074219 119.582031 21.304688 119.582031 28.96875 L 119.582031 51.105469 C 119.582031 58.765625 112.84375 65 104.558594 65 Z M 103 65 "/>
<path style=" stroke:none;fill-rule:nonzero;fill:rgb(90.196078%,20%,7.058824%);fill-opacity:1;" d="M 104.558594 62.378906 L 103 62.378906 C 96.148438 62.378906 90.597656 57.332031 90.597656 51.105469 L 90.597656 28.96875 C 90.597656 22.738281 96.148438 17.691406 103 17.691406 L 104.558594 17.691406 C 111.410156 17.691406 116.964844 22.738281 116.964844 28.96875 L 116.964844 51.105469 C 116.964844 57.332031 111.410156 62.378906 104.558594 62.378906 "/>
<path style=" stroke:none;fill-rule:nonzero;fill:rgb(100%,100%,100%);fill-opacity:1;" d="M 97.246094 50.425781 L 97.246094 29.175781 L 111.074219 29.175781 L 111.074219 33.519531 L 102.636719 33.519531 L 102.636719 37.242188 L 108.457031 37.242188 L 108.457031 41.617188 L 102.636719 41.617188 L 102.636719 46.082031 L 111.257812 46.082031 L 111.257812 50.425781 Z M 97.246094 50.425781 "/>
<path style=" stroke:none;fill-rule:nonzero;fill:rgb(97.254902%,70.588235%,44.705882%);fill-opacity:1;" d="M 76.140625 45.632812 L 76.140625 34.546875 L 77.871094 34.546875 C 81.691406 34.546875 83.542969 36.578125 83.542969 40.066406 C 83.542969 43.253906 81.546875 45.632812 77.488281 45.632812 Z M 77.894531 32.097656 L 73.0625 32.097656 L 73.0625 48.03125 L 77.558594 48.03125 C 83.253906 48.03125 86.714844 44.636719 86.714844 40.066406 C 86.714844 35.078125 83.496094 32.097656 77.894531 32.097656 "/>
</g>
</svg>
