<?xml version="1.0" encoding="UTF-8"?>
<svg xmlns="http://www.w3.org/2000/svg" xmlns:xlink="http://www.w3.org/1999/xlink"  viewBox="0 0 120 65" version="1.1">
<g id="surface1">
<path style=" stroke:none;fill-rule:nonzero;fill:rgb(100%,100%,100%);fill-opacity:1;" d="M 105.882812 0 L 13.707031 0 C 6.148438 0 0 6.148438 0 13.703125 L 0 49.089844 C 0 56.648438 6.148438 62.796875 13.707031 62.796875 L 50.898438 62.796875 C 53.347656 64.246094 56.140625 65.007812 58.984375 65 L 60.542969 65 C 63.523438 65 66.296875 64.183594 68.632812 62.796875 L 105.882812 62.796875 C 113.441406 62.796875 119.589844 56.648438 119.589844 49.089844 L 119.589844 13.703125 C 119.589844 6.148438 113.441406 0 105.882812 0 "/>
<path style=" stroke:none;fill-rule:nonzero;fill:rgb(90.196078%,20%,7.058824%);fill-opacity:1;" d="M 105.882812 57.914062 L 92.757812 57.914062 L 92.757812 22.160156 L 105.882812 22.160156 C 110.757812 22.15625 114.707031 26.109375 114.707031 30.984375 L 114.707031 49.089844 C 114.707031 53.960938 110.757812 57.914062 105.882812 57.914062 "/>
<path style=" stroke:none;fill-rule:nonzero;fill:rgb(0%,50.196078%,23.921569%);fill-opacity:1;" d="M 13.707031 57.914062 L 26.832031 57.914062 L 26.832031 22.160156 L 13.703125 22.160156 C 8.832031 22.160156 4.882812 26.109375 4.882812 30.984375 L 4.882812 49.089844 C 4.882812 53.960938 8.832031 57.914062 13.707031 57.914062 "/>
<path style=" stroke:none;fill-rule:nonzero;fill:rgb(94.901961%,56.078431%,40%);fill-opacity:1;" d="M 108.789062 32.097656 L 98.671875 32.097656 L 98.671875 48.03125 L 108.886719 48.03125 L 108.886719 45.632812 L 101.746094 45.632812 L 101.746094 40.941406 L 106.746094 40.941406 L 106.746094 38.539062 L 101.746094 38.539062 L 101.746094 34.496094 L 108.789062 34.496094 Z M 108.789062 32.097656 "/>
<path style=" stroke:none;fill-rule:nonzero;fill:rgb(48.627451%,48.235294%,48.235294%);fill-opacity:1;" d="M 11.589844 9.898438 L 11.589844 14.773438 L 9.621094 14.773438 L 9.621094 6.246094 L 11.160156 6.246094 L 15.132812 11.257812 L 15.132812 6.246094 L 17.105469 6.246094 L 17.105469 14.773438 L 15.519531 14.773438 Z M 11.589844 9.898438 "/>
<path style=" stroke:none;fill-rule:nonzero;fill:rgb(48.627451%,48.235294%,48.235294%);fill-opacity:1;" d="M 22.386719 13.09375 C 22.722656 13.09375 23.007812 13.023438 23.238281 12.882812 C 23.472656 12.742188 23.660156 12.558594 23.804688 12.324219 C 23.949219 12.09375 24.050781 11.828125 24.109375 11.527344 C 24.171875 11.226562 24.199219 10.921875 24.199219 10.609375 L 24.199219 6.25 L 26.171875 6.25 L 26.171875 10.609375 C 26.171875 11.203125 26.097656 11.753906 25.949219 12.265625 C 25.8125 12.753906 25.578125 13.210938 25.261719 13.609375 C 24.949219 14 24.542969 14.3125 24.085938 14.519531 C 23.609375 14.738281 23.042969 14.847656 22.386719 14.847656 C 21.707031 14.847656 21.125 14.730469 20.644531 14.5 C 20.164062 14.265625 19.773438 13.957031 19.476562 13.566406 C 19.175781 13.179688 18.953125 12.730469 18.816406 12.21875 C 18.671875 11.691406 18.601562 11.152344 18.601562 10.609375 L 18.601562 6.246094 L 20.574219 6.246094 L 20.574219 10.609375 C 20.574219 10.933594 20.605469 11.25 20.671875 11.546875 C 20.726562 11.824219 20.832031 12.09375 20.984375 12.339844 C 21.125 12.570312 21.3125 12.753906 21.539062 12.890625 C 21.769531 13.027344 22.050781 13.09375 22.386719 13.09375 "/>
<path style=" stroke:none;fill-rule:nonzero;fill:rgb(48.627451%,48.235294%,48.235294%);fill-opacity:1;" d="M 34.179688 7.980469 L 31.585938 7.980469 L 31.585938 14.777344 L 29.617188 14.777344 L 29.617188 7.980469 L 27.011719 7.980469 L 27.011719 6.246094 L 34.183594 6.246094 Z M 35.152344 14.773438 L 35.152344 6.246094 L 38.996094 6.246094 C 39.398438 6.246094 39.769531 6.332031 40.109375 6.5 C 40.441406 6.664062 40.742188 6.886719 40.992188 7.160156 C 41.238281 7.433594 41.433594 7.742188 41.574219 8.085938 C 41.710938 8.417969 41.78125 8.773438 41.785156 9.132812 C 41.785156 9.386719 41.75 9.644531 41.6875 9.890625 C 41.625 10.132812 41.53125 10.367188 41.410156 10.585938 C 41.171875 11.011719 40.820312 11.367188 40.390625 11.605469 L 42.347656 14.773438 L 40.125 14.773438 L 38.40625 12.027344 L 37.121094 12.027344 L 37.121094 14.777344 Z M 37.121094 10.304688 L 38.925781 10.304688 C 39.15625 10.304688 39.355469 10.199219 39.527344 9.976562 C 39.695312 9.757812 39.777344 9.476562 39.777344 9.132812 C 39.777344 8.777344 39.679688 8.5 39.488281 8.289062 C 39.296875 8.082031 39.089844 7.976562 38.863281 7.976562 L 37.121094 7.976562 Z M 43.320312 6.246094 L 45.289062 6.246094 L 45.289062 14.773438 L 43.320312 14.773438 Z M 46.753906 10.609375 L 50.453125 10.609375 L 50.453125 12.335938 L 46.753906 12.335938 Z M 46.753906 10.609375 "/>
<path style=" stroke:none;fill-rule:nonzero;fill:rgb(48.627451%,48.235294%,48.235294%);fill-opacity:1;" d="M 57.035156 8.746094 L 56.773438 8.566406 C 56.378906 8.335938 55.960938 8.160156 55.523438 8.035156 C 55.273438 7.964844 55.011719 7.929688 54.753906 7.929688 C 54.417969 7.929688 54.160156 7.988281 53.976562 8.109375 C 53.800781 8.226562 53.699219 8.425781 53.710938 8.636719 L 53.828125 9 L 54.171875 9.257812 C 54.347656 9.34375 54.535156 9.414062 54.722656 9.46875 C 54.945312 9.53125 55.195312 9.601562 55.484375 9.683594 C 55.859375 9.785156 56.230469 9.90625 56.589844 10.050781 C 56.894531 10.167969 57.179688 10.332031 57.433594 10.542969 C 57.664062 10.738281 57.84375 10.976562 57.964844 11.257812 C 58.089844 11.535156 58.152344 11.875 58.152344 12.265625 C 58.152344 12.746094 58.0625 13.152344 57.882812 13.484375 C 57.710938 13.804688 57.46875 14.082031 57.167969 14.289062 C 56.855469 14.5 56.507812 14.648438 56.140625 14.734375 C 55.75 14.824219 55.347656 14.871094 54.945312 14.871094 C 54.300781 14.867188 53.65625 14.773438 53.035156 14.589844 C 52.726562 14.496094 52.421875 14.386719 52.125 14.257812 C 51.839844 14.136719 51.566406 13.988281 51.304688 13.8125 L 52.171875 12.097656 L 52.496094 12.324219 C 52.671875 12.4375 52.886719 12.550781 53.144531 12.660156 C 53.398438 12.773438 53.6875 12.875 54.007812 12.960938 C 54.324219 13.046875 54.652344 13.09375 54.980469 13.09375 C 55.679688 13.09375 56.027344 12.878906 56.027344 12.457031 L 55.871094 12.0625 L 55.4375 11.78125 C 55.226562 11.683594 55.011719 11.605469 54.789062 11.542969 L 53.972656 11.304688 C 53.625 11.199219 53.28125 11.070312 52.953125 10.914062 C 52.6875 10.789062 52.445312 10.628906 52.230469 10.429688 C 52.042969 10.25 51.898438 10.03125 51.804688 9.789062 C 51.707031 9.523438 51.660156 9.238281 51.667969 8.949219 C 51.667969 8.5 51.75 8.105469 51.917969 7.761719 C 52.082031 7.425781 52.316406 7.128906 52.605469 6.890625 C 52.902344 6.648438 53.242188 6.46875 53.605469 6.355469 C 53.996094 6.234375 54.402344 6.175781 54.8125 6.175781 C 55.117188 6.175781 55.414062 6.203125 55.703125 6.257812 C 55.980469 6.3125 56.257812 6.386719 56.527344 6.476562 C 57 6.636719 57.457031 6.851562 57.886719 7.113281 Z M 57.035156 8.746094 "/>
<path style=" stroke:none;fill-rule:nonzero;fill:rgb(48.627451%,48.235294%,48.235294%);fill-opacity:1;" d="M 58.8125 10.441406 C 58.8125 9.917969 58.90625 9.398438 59.085938 8.910156 C 59.269531 8.40625 59.539062 7.945312 59.894531 7.546875 C 60.253906 7.136719 60.691406 6.808594 61.183594 6.574219 C 61.691406 6.324219 62.269531 6.199219 62.917969 6.199219 C 63.679688 6.199219 64.339844 6.371094 64.902344 6.71875 C 65.4375 7.035156 65.871094 7.503906 66.152344 8.0625 L 64.636719 9.117188 C 64.558594 8.914062 64.445312 8.722656 64.300781 8.558594 L 63.855469 8.199219 L 63.355469 8.007812 L 62.871094 7.953125 C 62.519531 7.953125 62.214844 8.03125 61.957031 8.183594 C 61.707031 8.332031 61.488281 8.53125 61.320312 8.769531 C 61.148438 9.019531 61.023438 9.296875 60.945312 9.585938 C 60.859375 9.886719 60.816406 10.199219 60.816406 10.511719 C 60.816406 10.847656 60.867188 11.171875 60.96875 11.484375 C 61.0625 11.78125 61.203125 12.0625 61.386719 12.3125 C 61.566406 12.554688 61.785156 12.742188 62.042969 12.882812 C 62.304688 13.023438 62.597656 13.097656 62.894531 13.09375 L 63.394531 13.027344 L 63.890625 12.824219 L 64.324219 12.464844 C 64.449219 12.316406 64.554688 12.132812 64.636719 11.917969 L 66.257812 12.863281 C 66.128906 13.179688 65.9375 13.464844 65.699219 13.707031 C 65.453125 13.957031 65.171875 14.167969 64.863281 14.332031 C 64.246094 14.667969 63.550781 14.84375 62.847656 14.847656 C 62.253906 14.847656 61.710938 14.722656 61.21875 14.46875 C 60.734375 14.222656 60.300781 13.882812 59.945312 13.464844 C 59.589844 13.046875 59.304688 12.566406 59.113281 12.050781 C 58.914062 11.535156 58.8125 10.992188 58.8125 10.441406 "/>
<path style=" stroke:none;fill-rule:nonzero;fill:rgb(48.627451%,48.235294%,48.235294%);fill-opacity:1;" d="M 70.75 14.847656 C 70.140625 14.847656 69.589844 14.722656 69.09375 14.476562 C 68.605469 14.234375 68.171875 13.902344 67.816406 13.496094 C 67.453125 13.089844 67.171875 12.617188 66.984375 12.109375 C 66.382812 10.53125 66.71875 8.753906 67.847656 7.503906 C 68.214844 7.105469 68.65625 6.785156 69.144531 6.554688 C 69.644531 6.320312 70.191406 6.199219 70.785156 6.199219 C 71.394531 6.199219 71.945312 6.324219 72.441406 6.574219 C 72.929688 6.8125 73.363281 7.148438 73.722656 7.558594 C 74.078125 7.96875 74.359375 8.441406 74.546875 8.949219 C 74.734375 9.457031 74.832031 9.996094 74.832031 10.535156 C 74.832031 11.089844 74.730469 11.640625 74.527344 12.15625 C 74.332031 12.664062 74.042969 13.128906 73.679688 13.53125 C 73.316406 13.933594 72.878906 14.257812 72.390625 14.488281 C 71.875 14.730469 71.316406 14.851562 70.75 14.847656 M 68.695312 10.523438 C 68.695312 10.851562 68.742188 11.171875 68.835938 11.476562 C 68.917969 11.773438 69.054688 12.050781 69.230469 12.300781 C 69.402344 12.542969 69.617188 12.734375 69.878906 12.878906 C 70.140625 13.023438 70.4375 13.09375 70.773438 13.09375 C 71.117188 13.09375 71.417969 13.015625 71.671875 12.863281 C 71.929688 12.714844 72.144531 12.515625 72.316406 12.273438 C 72.488281 12.027344 72.617188 11.75 72.699219 11.441406 C 72.785156 11.136719 72.828125 10.820312 72.828125 10.5 C 72.828125 10.175781 72.78125 9.855469 72.6875 9.546875 C 72.605469 9.25 72.46875 8.976562 72.289062 8.726562 C 72.113281 8.496094 71.890625 8.300781 71.636719 8.164062 C 71.367188 8.019531 71.066406 7.949219 70.761719 7.953125 C 70.417969 7.953125 70.117188 8.027344 69.859375 8.175781 C 69.609375 8.324219 69.390625 8.519531 69.21875 8.757812 C 69.042969 9.007812 68.910156 9.285156 68.828125 9.582031 C 68.742188 9.886719 68.695312 10.207031 68.695312 10.523438 "/>
<path style=" stroke:none;fill-rule:nonzero;fill:rgb(48.627451%,48.235294%,48.235294%);fill-opacity:1;" d="M 75.988281 14.773438 L 75.988281 6.246094 L 79.828125 6.246094 C 80.230469 6.246094 80.597656 6.332031 80.941406 6.5 C 81.273438 6.664062 81.574219 6.886719 81.824219 7.160156 C 82.070312 7.433594 82.265625 7.742188 82.40625 8.085938 C 82.542969 8.417969 82.613281 8.773438 82.613281 9.132812 C 82.617188 9.640625 82.488281 10.140625 82.242188 10.585938 C 82.003906 11.011719 81.648438 11.367188 81.222656 11.605469 L 83.179688 14.773438 L 80.957031 14.773438 L 79.238281 12.027344 L 77.953125 12.027344 L 77.953125 14.777344 Z M 77.957031 10.304688 L 79.757812 10.304688 C 79.988281 10.304688 80.1875 10.199219 80.355469 9.976562 C 80.527344 9.757812 80.609375 9.476562 80.609375 9.132812 C 80.609375 8.777344 80.511719 8.5 80.320312 8.289062 C 80.128906 8.082031 79.921875 7.976562 79.695312 7.976562 L 77.957031 7.976562 Z M 90.144531 13.046875 L 90.144531 14.773438 L 84.152344 14.773438 L 84.152344 6.246094 L 90.035156 6.246094 L 90.035156 7.976562 L 86.121094 7.976562 L 86.121094 9.636719 L 89.484375 9.636719 L 89.484375 11.230469 L 86.121094 11.230469 L 86.121094 13.046875 Z M 90.144531 13.046875 "/>
<path style=" stroke:none;fill-rule:nonzero;fill:rgb(52.941176%,74.117647%,14.509804%);fill-opacity:1;" d="M 48.804688 57.914062 L 26.832031 57.914062 L 26.832031 22.160156 L 48.804688 22.160156 Z M 48.804688 57.914062 "/>
<path style=" stroke:none;fill-rule:nonzero;fill:rgb(93.72549%,49.019608%,0%);fill-opacity:1;" d="M 92.757812 57.914062 L 70.78125 57.914062 L 70.78125 22.160156 L 92.757812 22.160156 Z M 92.757812 57.914062 "/>
<path style=" stroke:none;fill-rule:nonzero;fill:rgb(74.117647%,83.921569%,51.764706%);fill-opacity:1;" d="M 33.503906 45.632812 L 33.503906 41.128906 L 35.015625 41.128906 C 37.828125 41.148438 38.742188 41.980469 38.742188 43.296875 C 38.742188 44.9375 37.539062 45.632812 35.210938 45.632812 Z M 33.503906 38.910156 L 33.503906 34.496094 L 34.414062 34.496094 C 36.84375 34.496094 37.828125 35.214844 37.828125 36.648438 C 37.828125 37.960938 36.890625 38.863281 34.921875 38.886719 Z M 34.800781 32.097656 L 30.425781 32.097656 L 30.425781 48.03125 L 35.355469 48.03125 C 39.992188 48.03125 41.890625 46.160156 41.890625 43.296875 C 41.890625 41.726562 41.027344 40.480469 39.222656 39.765625 C 40.257812 38.957031 40.976562 37.824219 40.976562 36.371094 C 40.976562 34.011719 39.320312 32.097656 34.800781 32.097656 "/>
<path style=" stroke:none;fill-rule:nonzero;fill:rgb(97.254902%,70.588235%,44.705882%);fill-opacity:1;" d="M 80.675781 45.632812 L 80.675781 34.546875 L 82.40625 34.546875 C 86.226562 34.546875 88.078125 36.578125 88.078125 40.066406 C 88.078125 43.253906 86.082031 45.632812 82.023438 45.632812 Z M 82.429688 32.097656 L 77.597656 32.097656 L 77.597656 48.03125 L 82.09375 48.03125 C 87.789062 48.03125 91.25 44.636719 91.25 40.066406 C 91.25 35.078125 88.03125 32.097656 82.429688 32.097656 "/>
<path style=" stroke:none;fill-rule:nonzero;fill:rgb(45.490196%,67.058824%,49.411765%);fill-opacity:1;" d="M 13.761719 42.582031 L 16.191406 36.230469 L 18.523438 42.582031 Z M 17.34375 32.097656 L 15.203125 32.097656 L 8.59375 48.035156 L 11.695312 48.035156 L 12.851562 44.984375 L 19.410156 44.984375 L 20.539062 48.035156 L 23.929688 48.035156 Z M 17.34375 32.097656 "/>
<path style=" stroke:none;fill-rule:nonzero;fill:rgb(100%,100%,100%);fill-opacity:1;" d="M 58.984375 65 C 50.703125 65 43.964844 58.765625 43.964844 51.105469 L 43.964844 28.96875 C 43.964844 21.304688 50.703125 15.074219 58.984375 15.074219 L 60.542969 15.074219 C 68.828125 15.074219 75.566406 21.304688 75.566406 28.96875 L 75.566406 51.105469 C 75.566406 58.765625 68.828125 65 60.542969 65 Z M 58.984375 65 "/>
<path style=" stroke:none;fill-rule:nonzero;fill:rgb(100%,80%,0%);fill-opacity:1;" d="M 60.542969 62.378906 L 58.984375 62.378906 C 52.132812 62.378906 46.582031 57.332031 46.582031 51.105469 L 46.582031 28.96875 C 46.582031 22.738281 52.132812 17.691406 58.984375 17.691406 L 60.542969 17.691406 C 67.394531 17.691406 72.945312 22.738281 72.945312 28.96875 L 72.945312 51.105469 C 72.945312 57.332031 67.394531 62.378906 60.542969 62.378906 "/>
<path style=" stroke:none;fill-rule:nonzero;fill:rgb(100%,100%,100%);fill-opacity:1;" d="M 50.515625 39.3125 C 50.515625 32.539062 54.734375 28.351562 60.433594 28.351562 C 65.390625 28.351562 67.484375 30.96875 68.683594 33.738281 L 63.542969 35.679688 C 62.925781 34.230469 61.972656 33.183594 60.183594 33.183594 C 57.507812 33.183594 56.089844 35.585938 56.089844 39.28125 C 56.089844 43.378906 57.570312 45.378906 60.585938 45.378906 C 62.371094 45.378906 63.757812 44.332031 64.773438 42.824219 L 68.746094 45.808594 C 66.992188 48.519531 64.1875 50.214844 60.433594 50.214844 C 54.398438 50.214844 50.515625 45.996094 50.515625 39.3125 "/>
</g>
</svg>
