<?xml version="1.0" encoding="UTF-8"?>
<svg xmlns="http://www.w3.org/2000/svg" xmlns:xlink="http://www.w3.org/1999/xlink"  viewBox="0 0 120 65" version="1.1">
<g id="surface1">
<path style=" stroke:none;fill-rule:nonzero;fill:rgb(100%,100%,100%);fill-opacity:1;" d="M 105.886719 0 L 13.707031 0 C 6.148438 0 0 6.148438 0 13.703125 L 0 49.089844 L 0.00390625 49.09375 L 0.00390625 51.105469 C 0.00390625 58.765625 6.742188 65 15.023438 65 L 16.582031 65 C 19.5625 65 22.332031 64.183594 24.667969 62.792969 L 105.882812 62.792969 C 113.441406 62.792969 119.589844 56.644531 119.589844 49.089844 L 119.589844 13.703125 C 119.589844 6.148438 113.441406 0 105.886719 0 "/>
<path style=" stroke:none;fill-rule:nonzero;fill:rgb(90.196078%,20%,7.058824%);fill-opacity:1;" d="M 105.882812 57.914062 L 92.757812 57.914062 L 92.757812 22.160156 L 105.882812 22.160156 C 110.757812 22.160156 114.707031 26.109375 114.707031 30.984375 L 114.707031 49.089844 C 114.707031 53.960938 110.757812 57.914062 105.882812 57.914062 "/>
<path style=" stroke:none;fill-rule:nonzero;fill:rgb(94.901961%,56.078431%,40%);fill-opacity:1;" d="M 108.789062 32.097656 L 98.671875 32.097656 L 98.671875 48.03125 L 108.886719 48.03125 L 108.886719 45.632812 L 101.75 45.632812 L 101.75 40.941406 L 106.75 40.941406 L 106.75 38.539062 L 101.75 38.539062 L 101.75 34.5 L 108.792969 34.5 Z M 108.789062 32.097656 "/>
<path style=" stroke:none;fill-rule:nonzero;fill:rgb(48.627451%,48.235294%,48.235294%);fill-opacity:1;" d="M 11.59375 9.898438 L 11.59375 14.777344 L 9.621094 14.777344 L 9.621094 6.25 L 11.160156 6.25 L 15.136719 11.257812 L 15.136719 6.25 L 17.105469 6.25 L 17.105469 14.773438 L 15.519531 14.773438 Z M 11.59375 9.898438 "/>
<path style=" stroke:none;fill-rule:nonzero;fill:rgb(48.627451%,48.235294%,48.235294%);fill-opacity:1;" d="M 22.386719 13.09375 C 22.722656 13.09375 23.007812 13.023438 23.242188 12.882812 C 23.472656 12.742188 23.660156 12.558594 23.804688 12.324219 C 23.949219 12.09375 24.050781 11.828125 24.109375 11.527344 C 24.171875 11.226562 24.203125 10.921875 24.203125 10.609375 L 24.203125 6.25 L 26.171875 6.25 L 26.171875 10.609375 C 26.175781 11.167969 26.101562 11.726562 25.949219 12.265625 C 25.8125 12.753906 25.578125 13.210938 25.265625 13.609375 C 24.949219 14 24.546875 14.3125 24.085938 14.519531 C 23.613281 14.738281 23.042969 14.847656 22.386719 14.847656 C 21.707031 14.847656 21.128906 14.730469 20.648438 14.5 C 20.1875 14.285156 19.789062 13.96875 19.476562 13.570312 C 19.167969 13.167969 18.945312 12.707031 18.816406 12.21875 C 18.671875 11.691406 18.601562 11.152344 18.605469 10.609375 L 18.605469 6.25 L 20.574219 6.25 L 20.574219 10.609375 C 20.574219 10.933594 20.605469 11.25 20.671875 11.546875 C 20.734375 11.839844 20.839844 12.105469 20.984375 12.339844 C 21.128906 12.570312 21.3125 12.753906 21.542969 12.890625 C 21.769531 13.027344 22.050781 13.09375 22.386719 13.09375 "/>
<path style=" stroke:none;fill-rule:nonzero;fill:rgb(48.627451%,48.235294%,48.235294%);fill-opacity:1;" d="M 34.183594 7.976562 L 31.589844 7.976562 L 31.589844 14.773438 L 29.617188 14.773438 L 29.617188 7.976562 L 27.011719 7.976562 L 27.011719 6.25 L 34.183594 6.25 Z M 35.15625 14.773438 L 35.15625 6.25 L 38.996094 6.25 C 39.382812 6.246094 39.761719 6.332031 40.109375 6.503906 C 40.449219 6.667969 40.742188 6.890625 40.992188 7.160156 C 41.238281 7.433594 41.433594 7.742188 41.574219 8.085938 C 41.714844 8.429688 41.785156 8.777344 41.785156 9.132812 C 41.785156 9.640625 41.65625 10.140625 41.410156 10.585938 C 41.171875 11.015625 40.820312 11.367188 40.390625 11.605469 L 42.347656 14.773438 L 40.128906 14.773438 L 38.410156 12.027344 L 37.125 12.027344 L 37.125 14.777344 Z M 37.125 10.308594 L 38.925781 10.308594 C 39.15625 10.308594 39.359375 10.199219 39.527344 9.976562 C 39.695312 9.757812 39.777344 9.476562 39.777344 9.132812 C 39.777344 8.777344 39.683594 8.5 39.492188 8.289062 C 39.296875 8.082031 39.089844 7.976562 38.867188 7.976562 L 37.125 7.976562 Z M 43.320312 6.25 L 45.289062 6.25 L 45.289062 14.773438 L 43.320312 14.773438 Z M 46.757812 10.609375 L 50.457031 10.609375 L 50.457031 12.335938 L 46.753906 12.335938 Z M 46.757812 10.609375 "/>
<path style=" stroke:none;fill-rule:nonzero;fill:rgb(48.627451%,48.235294%,48.235294%);fill-opacity:1;" d="M 57.035156 8.746094 L 56.773438 8.566406 C 56.378906 8.339844 55.960938 8.160156 55.523438 8.039062 C 55.273438 7.96875 55.015625 7.929688 54.753906 7.929688 C 54.417969 7.929688 54.160156 7.992188 53.980469 8.109375 C 53.800781 8.226562 53.699219 8.429688 53.710938 8.640625 L 53.832031 9 L 54.171875 9.257812 C 54.351562 9.34375 54.535156 9.414062 54.722656 9.46875 C 54.945312 9.53125 55.199219 9.605469 55.488281 9.683594 C 55.898438 9.796875 56.261719 9.917969 56.59375 10.050781 C 56.898438 10.167969 57.179688 10.335938 57.433594 10.542969 C 57.664062 10.738281 57.84375 10.976562 57.96875 11.257812 C 58.089844 11.539062 58.152344 11.875 58.152344 12.265625 C 58.152344 12.746094 58.0625 13.152344 57.882812 13.484375 C 57.714844 13.804688 57.46875 14.082031 57.167969 14.289062 C 56.855469 14.5 56.507812 14.652344 56.140625 14.734375 C 55.75 14.828125 55.351562 14.875 54.949219 14.871094 C 54.300781 14.871094 53.65625 14.773438 53.039062 14.589844 C 52.726562 14.5 52.421875 14.386719 52.125 14.261719 C 51.839844 14.136719 51.566406 13.988281 51.308594 13.816406 L 52.171875 12.097656 L 52.496094 12.324219 C 52.671875 12.441406 52.886719 12.550781 53.144531 12.660156 C 53.402344 12.773438 53.691406 12.875 54.007812 12.960938 C 54.328125 13.050781 54.652344 13.09375 54.984375 13.09375 C 55.679688 13.09375 56.027344 12.882812 56.027344 12.457031 L 55.871094 12.0625 L 55.441406 11.78125 C 55.230469 11.6875 55.011719 11.609375 54.789062 11.546875 L 53.972656 11.304688 C 53.625 11.203125 53.285156 11.070312 52.953125 10.914062 C 52.691406 10.792969 52.445312 10.628906 52.230469 10.429688 C 52.042969 10.25 51.898438 10.035156 51.804688 9.792969 C 51.710938 9.523438 51.664062 9.238281 51.667969 8.953125 C 51.667969 8.503906 51.753906 8.109375 51.921875 7.761719 C 52.082031 7.425781 52.316406 7.128906 52.605469 6.890625 C 52.902344 6.648438 53.242188 6.46875 53.609375 6.359375 C 54 6.234375 54.40625 6.175781 54.816406 6.175781 C 55.121094 6.175781 55.414062 6.203125 55.703125 6.261719 C 55.992188 6.316406 56.265625 6.390625 56.527344 6.476562 C 57.003906 6.640625 57.457031 6.851562 57.890625 7.113281 Z M 57.035156 8.746094 "/>
<path style=" stroke:none;fill-rule:nonzero;fill:rgb(48.627451%,48.235294%,48.235294%);fill-opacity:1;" d="M 58.8125 10.441406 C 58.8125 9.917969 58.90625 9.398438 59.089844 8.910156 C 59.269531 8.40625 59.542969 7.945312 59.894531 7.546875 C 60.253906 7.136719 60.695312 6.808594 61.183594 6.574219 C 61.695312 6.324219 62.273438 6.199219 62.917969 6.199219 C 63.679688 6.199219 64.339844 6.371094 64.902344 6.71875 C 65.4375 7.035156 65.871094 7.503906 66.152344 8.0625 L 64.636719 9.117188 C 64.558594 8.914062 64.445312 8.722656 64.300781 8.558594 L 63.855469 8.199219 L 63.359375 8.007812 L 62.871094 7.953125 C 62.550781 7.945312 62.238281 8.023438 61.960938 8.183594 C 61.707031 8.328125 61.488281 8.53125 61.324219 8.769531 C 61.152344 9.019531 61.023438 9.296875 60.945312 9.585938 C 60.859375 9.886719 60.820312 10.199219 60.820312 10.511719 C 60.820312 10.847656 60.867188 11.171875 60.96875 11.484375 C 61.066406 11.796875 61.210938 12.074219 61.386719 12.3125 C 61.570312 12.554688 61.785156 12.742188 62.042969 12.882812 C 62.300781 13.023438 62.582031 13.09375 62.894531 13.09375 L 63.394531 13.027344 L 63.890625 12.824219 L 64.324219 12.464844 C 64.453125 12.316406 64.558594 12.132812 64.636719 11.917969 L 66.257812 12.863281 C 66.128906 13.179688 65.941406 13.464844 65.699219 13.707031 C 65.453125 13.957031 65.171875 14.167969 64.867188 14.332031 C 64.246094 14.667969 63.550781 14.84375 62.847656 14.847656 C 62.28125 14.851562 61.722656 14.722656 61.21875 14.46875 C 60.734375 14.222656 60.300781 13.878906 59.945312 13.464844 C 59.589844 13.046875 59.308594 12.566406 59.113281 12.050781 C 58.914062 11.535156 58.8125 10.992188 58.8125 10.441406 "/>
<path style=" stroke:none;fill-rule:nonzero;fill:rgb(48.627451%,48.235294%,48.235294%);fill-opacity:1;" d="M 70.75 14.847656 C 70.140625 14.847656 69.589844 14.722656 69.09375 14.476562 C 68.609375 14.234375 68.171875 13.902344 67.816406 13.496094 C 67.457031 13.089844 67.175781 12.617188 66.988281 12.109375 C 66.589844 11.066406 66.59375 9.917969 66.996094 8.878906 C 67.195312 8.371094 67.484375 7.90625 67.851562 7.503906 C 68.21875 7.105469 68.65625 6.785156 69.148438 6.554688 C 69.648438 6.320312 70.195312 6.199219 70.789062 6.199219 C 71.394531 6.199219 71.949219 6.324219 72.445312 6.574219 C 72.929688 6.8125 73.367188 7.148438 73.722656 7.558594 C 74.082031 7.96875 74.359375 8.441406 74.546875 8.949219 C 74.734375 9.457031 74.832031 9.996094 74.832031 10.535156 C 74.835938 11.089844 74.730469 11.640625 74.527344 12.15625 C 74.332031 12.664062 74.046875 13.128906 73.679688 13.53125 C 73.316406 13.933594 72.878906 14.257812 72.390625 14.488281 C 71.878906 14.730469 71.316406 14.851562 70.75 14.847656 M 68.695312 10.523438 C 68.695312 10.851562 68.742188 11.171875 68.835938 11.476562 C 68.925781 11.785156 69.058594 12.0625 69.230469 12.300781 C 69.402344 12.539062 69.625 12.738281 69.878906 12.878906 C 70.140625 13.023438 70.4375 13.09375 70.773438 13.09375 C 71.117188 13.09375 71.417969 13.015625 71.675781 12.863281 C 71.929688 12.714844 72.144531 12.515625 72.320312 12.273438 C 72.492188 12.019531 72.625 11.738281 72.703125 11.441406 C 72.785156 11.136719 72.828125 10.820312 72.828125 10.5 C 72.828125 10.171875 72.78125 9.851562 72.691406 9.546875 C 72.605469 9.25 72.46875 8.976562 72.289062 8.726562 C 72.113281 8.496094 71.894531 8.304688 71.640625 8.164062 C 71.382812 8.023438 71.089844 7.953125 70.761719 7.953125 C 70.449219 7.945312 70.136719 8.023438 69.863281 8.175781 C 69.609375 8.320312 69.390625 8.519531 69.21875 8.757812 C 69.042969 9.007812 68.910156 9.285156 68.828125 9.582031 C 68.742188 9.886719 68.695312 10.207031 68.695312 10.523438 "/>
<path style=" stroke:none;fill-rule:nonzero;fill:rgb(48.627451%,48.235294%,48.235294%);fill-opacity:1;" d="M 75.988281 14.773438 L 75.988281 6.25 L 79.828125 6.25 C 80.230469 6.25 80.597656 6.332031 80.941406 6.503906 C 81.273438 6.664062 81.574219 6.886719 81.824219 7.160156 C 82.070312 7.433594 82.265625 7.742188 82.40625 8.085938 C 82.542969 8.417969 82.613281 8.773438 82.617188 9.132812 C 82.617188 9.390625 82.585938 9.644531 82.519531 9.894531 C 82.457031 10.132812 82.363281 10.367188 82.246094 10.585938 C 82.007812 11.011719 81.652344 11.367188 81.222656 11.605469 L 83.179688 14.773438 L 80.960938 14.773438 L 79.242188 12.027344 L 77.957031 12.027344 L 77.957031 14.777344 Z M 77.957031 10.308594 L 79.757812 10.308594 C 79.988281 10.308594 80.191406 10.199219 80.359375 9.976562 C 80.527344 9.757812 80.609375 9.476562 80.609375 9.132812 C 80.609375 8.777344 80.515625 8.5 80.324219 8.289062 C 80.128906 8.082031 79.921875 7.976562 79.699219 7.976562 L 77.957031 7.976562 Z M 90.148438 13.046875 L 90.148438 14.773438 L 84.152344 14.773438 L 84.152344 6.25 L 90.039062 6.25 L 90.039062 7.976562 L 86.121094 7.976562 L 86.121094 9.636719 L 89.488281 9.636719 L 89.488281 11.230469 L 86.125 11.230469 L 86.125 13.046875 Z M 90.148438 13.046875 "/>
<path style=" stroke:none;fill-rule:nonzero;fill:rgb(52.941176%,74.117647%,14.509804%);fill-opacity:1;" d="M 48.808594 57.914062 L 26.832031 57.914062 L 26.832031 22.160156 L 48.808594 22.160156 Z M 48.808594 57.914062 "/>
<path style=" stroke:none;fill-rule:nonzero;fill:rgb(100%,80%,0%);fill-opacity:1;" d="M 70.78125 57.914062 L 48.808594 57.914062 L 48.808594 22.160156 L 70.78125 22.160156 Z M 70.78125 57.914062 "/>
<path style=" stroke:none;fill-rule:nonzero;fill:rgb(93.72549%,49.019608%,0%);fill-opacity:1;" d="M 92.757812 57.914062 L 70.78125 57.914062 L 70.78125 22.160156 L 92.757812 22.160156 Z M 92.757812 57.914062 "/>
<path style=" stroke:none;fill-rule:nonzero;fill:rgb(74.117647%,83.921569%,51.764706%);fill-opacity:1;" d="M 37.515625 45.632812 L 37.515625 41.128906 L 39.027344 41.128906 C 41.839844 41.152344 42.753906 41.984375 42.753906 43.300781 C 42.753906 44.9375 41.550781 45.632812 39.21875 45.632812 Z M 37.515625 38.910156 L 37.515625 34.5 L 38.425781 34.5 C 40.855469 34.5 41.839844 35.214844 41.839844 36.648438 C 41.839844 37.964844 40.902344 38.863281 38.933594 38.886719 Z M 38.8125 32.097656 L 34.4375 32.097656 L 34.4375 48.035156 L 39.363281 48.035156 C 44.003906 48.035156 45.902344 46.164062 45.902344 43.300781 C 45.902344 41.726562 45.035156 40.480469 43.234375 39.765625 C 44.269531 38.957031 44.988281 37.824219 44.988281 36.371094 C 44.988281 34.011719 43.328125 32.097656 38.8125 32.097656 "/>
<path style=" stroke:none;fill-rule:nonzero;fill:rgb(100%,87.45098%,49.019608%);fill-opacity:1;" d="M 60.164062 31.863281 C 55.886719 31.863281 52.59375 35.054688 52.59375 40.042969 C 52.59375 45.054688 55.625 48.265625 60.210938 48.265625 C 63.171875 48.265625 65.285156 47.109375 66.605469 44.914062 L 64.296875 43.230469 C 63.363281 44.753906 62.0625 45.609375 60.332031 45.609375 C 57.398438 45.609375 55.765625 43.574219 55.765625 40.019531 C 55.765625 36.691406 57.449219 34.523438 60.046875 34.523438 C 61.753906 34.523438 63.003906 35.375 63.601562 36.832031 L 66.535156 35.746094 C 65.574219 33.507812 63.820312 31.867188 60.164062 31.867188 "/>
<path style=" stroke:none;fill-rule:nonzero;fill:rgb(97.254902%,70.588235%,44.705882%);fill-opacity:1;" d="M 78.902344 45.632812 L 78.902344 34.546875 L 80.632812 34.546875 C 84.453125 34.546875 86.304688 36.578125 86.304688 40.066406 C 86.304688 43.253906 84.308594 45.632812 80.25 45.632812 Z M 80.65625 32.097656 L 75.824219 32.097656 L 75.824219 48.035156 L 80.320312 48.035156 C 86.015625 48.035156 89.476562 44.640625 89.476562 40.066406 C 89.476562 35.078125 86.257812 32.097656 80.65625 32.097656 "/>
<path style=" stroke:none;fill-rule:nonzero;fill:rgb(100%,100%,100%);fill-opacity:1;" d="M 15.023438 65 C 6.738281 65 0.00390625 58.765625 0.00390625 51.105469 L 0.00390625 28.96875 C 0.00390625 21.304688 6.742188 15.074219 15.023438 15.074219 L 16.582031 15.074219 C 24.867188 15.074219 31.605469 21.304688 31.605469 28.96875 L 31.605469 51.105469 C 31.605469 58.765625 24.867188 65 16.582031 65 Z M 15.023438 65 "/>
<path style=" stroke:none;fill-rule:nonzero;fill:rgb(0%,50.196078%,23.921569%);fill-opacity:1;" d="M 16.582031 62.378906 L 15.023438 62.378906 C 8.171875 62.378906 2.621094 57.332031 2.621094 51.105469 L 2.621094 28.96875 C 2.621094 22.738281 8.171875 17.691406 15.023438 17.691406 L 16.582031 17.691406 C 23.433594 17.691406 28.984375 22.738281 28.984375 28.96875 L 28.984375 51.105469 C 28.984375 57.332031 23.433594 62.378906 16.582031 62.378906 "/>
<path style=" stroke:none;fill-rule:nonzero;fill:rgb(100%,100%,100%);fill-opacity:1;" d="M 5.9375 49.804688 L 13.808594 28.558594 L 18.152344 28.558594 L 25.96875 49.804688 L 20.410156 49.804688 L 19.339844 46.386719 L 12.160156 46.386719 L 11.03125 49.804688 Z M 13.605469 42.046875 L 17.949219 42.046875 L 15.835938 35.332031 Z M 13.605469 42.046875 "/>
</g>
</svg>
